<svg width="625" height="895" viewBox="0 0 625 895" fill="none" xmlns="http://www.w3.org/2000/svg">
<path d="M315.358 120.719C316.399 120.658 317.44 120.609 318.482 120.574C365.09 119.008 412.713 130.301 451.732 156.343C463.19 163.99 473.511 172.782 483.578 182.153C485.712 180.856 487.94 179.723 490.246 178.763C507.568 171.396 526.502 171.817 543.847 178.902C564.468 187.187 580.847 203.48 589.241 224.057C596.719 242.203 596.067 258.587 588.596 276.475C596.853 283.826 602.905 296.837 606.591 307.051C615.306 331.197 615.584 360.917 604.338 384.3C596.885 399.798 583.647 413.265 567.177 418.956C556.779 422.549 544.131 422.388 534.158 417.546C532.757 425.078 531.373 432.675 529.131 440.009C521.114 466.235 505.387 488.661 485.074 506.845C480.407 511.023 475.266 515.669 469.743 518.609C477.124 522.767 484.248 528.291 490.846 533.599C515.739 553.628 537.59 578.067 550.618 607.509C566.264 642.866 568.996 676.605 554.908 713.106C559.726 713.049 564.358 713.236 569.11 714.089C586.947 717.181 602.809 727.276 613.164 742.126C623.942 757.873 626.605 777.494 622.969 795.984C616.67 828.016 591.314 860.318 564.241 878.216C544.682 891.146 521.041 898.012 497.71 893.096C479.722 889.305 463.95 877.736 453.961 862.432C408.323 863.286 362.574 862.605 316.925 862.593L270.501 862.568C261.515 862.558 252.138 863.062 243.218 861.977C234.312 873.134 224.242 881.828 211.178 887.789C189.536 897.664 165.046 896.425 143.079 888.169C122.33 880.371 93.9712 858.087 84.7502 837.611C77.6362 837.739 70.5702 838.279 64.7782 833.314C56.7182 826.404 54.9962 811.757 54.1192 801.863C53.4392 801.993 52.7672 802.112 52.0812 802.207C41.1272 803.73 30.4682 801.263 21.6692 794.442C9.25722 784.82 3.10523 770.003 1.32323 754.737C-0.638773 737.926 2.98822 720.948 13.6952 707.589C20.6382 698.927 28.9712 694.057 40.0312 692.853C36.4562 679.345 34.8542 665.524 34.3262 651.576C29.0762 651.724 22.7182 652.533 18.5132 648.702C17.1772 647.484 16.2032 645.867 16.2812 644.001C16.3562 642.205 17.5302 640.509 18.8542 639.368C23.1882 635.634 29.4052 636.084 34.7262 636.474C35.6162 627.609 37.1342 613.634 42.4952 606.427C44.6752 603.496 48.0102 602.657 51.4722 602.098C58.7792 600.917 67.1512 602.054 74.5932 602.119L118.518 602.084C130.981 602.053 143.423 601.731 155.883 601.524C161.642 601.429 167.638 600.904 173.379 601.325C176.551 601.558 180.169 602.192 182.744 604.211C188.92 609.054 191.721 628.852 192.865 636.85C197.394 636.357 205.099 635.184 209.048 637.878C210.797 639.071 211.603 641.35 211.736 643.374C211.88 645.555 211.252 647.988 209.697 649.585C206.614 652.751 198.236 651.897 194.052 651.955C193.562 665.467 191.144 678.987 189.243 692.361L180.699 752.273L174.74 794.603C173.593 802.935 172.881 811.689 170.889 819.86C169.776 824.427 168.068 828.844 164.618 832.182C161.836 834.873 158.174 836.446 154.443 837.304C145.221 839.423 134.127 838.331 124.721 838.152C117.177 838.008 109.631 838.037 102.09 837.783C106.926 842.838 110.966 848.611 116.052 853.454C133.153 869.74 156.545 879.608 180.223 879.061C197.319 878.687 213.566 871.536 225.389 859.181C238.252 845.745 245.197 827.717 244.672 809.124C243.513 782.702 230.407 759.508 208.757 744.48C204.689 741.657 198.569 739.69 195.959 735.346C194.903 733.589 194.402 731.553 194.981 729.544C195.571 727.497 197.168 725.879 199.069 724.983C201.859 723.668 204.943 723.982 207.718 725.176C211.651 726.87 215.801 730.146 219.202 732.761C234.462 744.494 246.127 758.565 253.467 776.494C263.013 799.81 261.939 824.119 252.293 847.107L446.898 847.042C445.796 844.141 444.927 841.157 444.299 838.118C439.987 818.115 444.716 797.043 455.797 780.022C426.882 792.193 393.376 796.772 363.281 786.152C345.154 779.756 329.038 766.38 320.852 748.81C313.638 733.326 312.466 714.255 318.461 698.186C321.902 688.966 327.866 681.094 334.944 674.346C351.436 658.622 370.645 656.067 392.523 657.402C402.338 658.001 411.318 658.8 420.502 654.506C433.905 648.241 442.138 635.174 446.397 621.443C447.748 617.088 448.214 612.344 449.908 608.115C450.676 606.199 451.79 604.658 453.753 603.865C455.852 603.017 458.337 603.162 460.403 604.033C462.042 604.724 463.676 605.998 464.286 607.723C466.496 613.974 459.174 632.619 456.163 638.857C451.298 648.938 444.326 657.93 434.952 664.174C409.062 681.418 387.419 666.221 362.28 675.218C350.115 679.572 340.127 688.284 334.688 700.044C329.025 712.29 328.41 725.713 333.211 738.349C338.767 752.975 350.441 763.917 364.652 770.129C377 775.526 390.561 776.707 403.894 776.274C430.839 775.398 459.802 764.605 481.629 748.726C492.379 740.905 502.166 731.991 513.716 725.27C521.376 720.812 529.37 717.88 537.585 714.661C548.342 692.766 551.51 667.916 546.588 644.023C535.744 592.729 498.544 555.096 456.048 527.368C449.956 529.713 444.027 533.88 438.129 536.822C426.005 542.785 413.329 547.552 400.281 551.055C334.487 569.134 258.797 561.193 199.339 527.383C191.875 531.933 183.77 538.415 177.69 544.657C174.9 547.523 172.447 550.864 169.555 553.588C168.303 554.767 166.372 555.273 164.677 555.216C162.312 555.137 159.522 553.856 158.034 551.987C157.008 550.699 156.706 549.186 156.921 547.582C158.195 538.067 177.67 524.386 185.156 518.587C147.394 488.656 130.821 465.756 121.895 417.745C118.539 419.288 114.982 420.346 111.329 420.89C97.3542 423.046 83.1522 418.411 71.9652 410.026C55.8632 397.958 46.9342 379.308 44.1362 359.715C39.5802 327.806 47.1932 301.782 66.2412 276.224C65.5672 274.72 64.8902 273.209 64.3152 271.663C58.2432 255.332 61.1162 236.036 68.2642 220.573C77.2902 201.048 94.3092 184.64 114.65 177.345C135.492 169.869 154.027 173.412 173.453 182.577C213.892 143.451 259.232 123.962 315.358 120.719ZM175.306 201.907C159.635 220.813 151.184 236.084 141.774 258.777C148.565 266.627 152.04 274.222 151.257 284.765C150.381 296.566 146.942 308.482 144.943 320.168C135.315 376.452 126.121 433.693 166.476 480.967C200.065 520.315 253.895 539.887 304.392 543.814C316.688 544.77 329.136 545.447 341.461 544.634C394.099 542.056 449.76 524.333 486.055 484.277C513.033 454.503 520.968 423.939 518.94 384.729C518.003 367.359 516.019 350.061 513 332.93C510.606 319.165 502.255 289.584 503.608 277.572C504.45 270.089 509.379 264.01 513.941 258.366C505.719 236.941 495.213 218.765 480.006 201.561C475.486 205.851 471.028 210.137 467.003 214.908C463.525 219.03 454.105 234.875 450.406 236.535C449.985 236.724 449.008 236.828 448.521 236.83C446.595 236.839 444.484 235.948 442.811 235.075C438.272 232.707 434.126 229.451 429.766 226.761C423.491 222.89 416.509 219.581 409.74 216.651C380.084 203.815 348.521 197.211 316.135 199.213C279.942 201.565 248.666 212.828 218.362 232.61C214.916 234.86 208.701 239.362 204.693 235.612C199.198 230.47 195.373 223.675 190.608 217.88C185.873 212.122 180.443 207.254 175.306 201.907ZM210.992 218.585C247.924 194.782 290.77 180.609 335.124 183.245C367.424 184.411 399.034 192.921 427.555 208.128C433.334 211.179 439.591 214.222 444.699 218.32C451.722 208.038 460.232 198.855 469.95 191.071C428.187 152.872 377.407 134.433 320.784 136.224C279.048 137.63 239.564 149.804 205.996 175.03C199.272 180.083 192.514 185.491 186.65 191.529C195.771 199.588 204.377 208.28 210.992 218.585ZM534.744 401.378C542.15 406.193 549.875 407.293 558.448 405.495C564.127 404.304 568.704 401.553 573.609 398.554C588.379 385.815 595.46 370.257 596.981 350.861C598.828 327.304 591.572 302.797 576.16 284.764C567.723 274.892 555.144 265.987 541.798 265.046C540.056 264.923 538.224 265.012 536.484 265.148C530.854 266.054 525.135 268.583 521.732 273.363C518.315 278.162 519.044 284.292 520.123 289.747C522.379 301.154 525.183 312.467 527.259 323.909C531.959 349.471 534.463 375.389 534.744 401.378ZM86.8452 401.475C94.9552 405.852 105.321 407.836 114.368 405.322C116.302 404.785 119.321 403.383 120.258 401.466C121.925 398.054 121.9 376.923 122.23 372.024C123.177 357.994 125.226 343.915 127.402 330.033C128.689 321.511 130.176 313.021 131.863 304.57C133.072 298.365 134.655 292.006 135.194 285.707C135.449 282.732 135.695 278.351 134.458 275.613C132.344 270.934 128.087 267.847 123.307 266.269C119.737 265.104 115.958 264.716 112.225 265.133C96.5652 267.654 84.7022 277.351 75.5492 289.934C61.2682 309.567 55.8092 335.824 59.7722 359.679C62.2102 374.362 69.1792 389.491 81.7092 398.209C83.3722 399.366 85.1162 400.42 86.8452 401.475ZM513.887 879.27C539.707 878.392 561.783 863.987 579.033 845.66C595.029 828.664 610.087 802.188 609.242 778.151C608.86 764.501 602.961 751.589 592.891 742.366C581.883 732.307 569.023 727.901 554.254 728.192C531.207 730.022 514.153 741.44 497.008 756.231C490.688 761.684 484.536 767.135 479.122 773.518C466.035 788.945 456.926 807.113 458.654 827.816C459.774 843.003 466.894 857.12 478.441 867.047C488.315 875.398 501.003 879.497 513.887 879.27ZM82.9502 779.099C103.671 779.034 124.419 778.943 145.138 779.197C146.857 779.218 159.92 779.873 160.446 779.581C160.684 779.45 160.829 779.197 161.021 779.005L161.333 777.384C165.103 754.979 167.472 732.307 171.175 709.881C154.626 710.066 138.034 709.148 121.48 708.967C112.565 708.922 103.65 708.771 94.7392 708.514C89.5482 708.411 84.1532 708.695 79.0072 707.988C89.8862 724.407 92.4712 743.842 88.5402 763.012C87.3882 768.629 85.6612 774.035 82.9502 779.099ZM511.219 189.169C504.988 189.966 499.231 191.672 493.269 193.6C509.481 210.426 519.624 230.096 528.23 251.557C542.904 248.476 554.27 250.61 567.561 257.525C570.948 259.556 574.14 261.723 577.17 264.264C581.415 250.749 578.57 236.587 572.133 224.209C563.829 208.443 549.6 196.623 532.578 191.353C525.891 189.294 518.193 188.295 511.219 189.169ZM170.374 637.064C172.768 637.104 175.186 637.071 177.576 637.191C176.284 630.144 174.777 623.321 172.56 616.491C145.837 616.98 119.109 617.126 92.3832 616.929C80.5112 616.901 68.2122 615.983 56.4012 616.753C55.4292 616.966 55.2102 616.783 54.6212 617.662C51.5242 622.282 50.9752 631.015 50.0852 636.53C90.1692 636.192 130.281 637.115 170.374 637.064ZM97.2692 253.285C108.206 249.582 116.774 249.175 128.052 251.561C135.807 231.298 146.465 209.408 162.132 194.073C152.466 190.885 144.024 188.565 133.748 189.161C115.903 191.615 101.199 199.812 90.1962 214.218C80.5432 226.854 75.0822 243.713 77.2022 259.624C77.4292 261.324 77.8432 262.983 78.2802 264.639C84.4532 260.095 90.1722 256.323 97.2692 253.285ZM55.9022 692.948C69.6762 691.985 87.6222 693.222 101.877 693.46C125.504 693.853 149.318 693.578 172.892 695.145L173.816 689.119C175.851 676.858 177.846 664.106 178.282 651.684C159.098 652.577 139.624 651.919 120.42 651.615C96.7922 651.24 73.0192 651.044 49.3902 651.362C49.8542 665.41 51.7012 679.495 55.9022 692.948ZM46.1012 788.028C53.6762 787.402 59.6772 785.138 64.7202 779.198C73.2842 769.112 76.0932 753.961 74.8922 741.1C73.9462 730.958 70.2882 718.569 62.0902 711.902C57.2272 707.947 52.0082 706.616 45.8852 706.162C37.7842 707.151 30.7262 710.635 25.6242 717.151C17.5392 727.476 15.0252 742.039 16.7042 754.785C18.0792 765.217 22.6402 776.217 31.2932 782.67C35.8652 786.081 40.5452 787.291 46.1012 788.028ZM75.6102 822.399C91.3662 822.314 107.123 822.504 122.872 822.969C131.75 823.178 141.575 824.273 150.353 823.058C151.514 822.897 152.251 822.356 153.031 821.502C153.444 821.05 153.646 820.742 153.987 820.263C157.105 811.957 158.029 803.193 159.215 794.455C130.199 794.332 101.197 793.777 72.1752 793.972C68.8782 799.307 69.5902 805.883 70.9782 811.765C71.8902 815.63 73.3212 819.131 75.6102 822.399Z" fill="white"/>
<path d="M322.818 365.706C348.314 364.727 375.255 372.663 395.507 388.357C411.083 400.427 422.537 417.192 424.945 437.03C427.124 454.983 421.457 472.131 410.313 486.194C392.053 509.238 363.199 518.259 335.087 521.388C306.745 521.719 277.94 515.937 255.806 497.022C241.121 484.473 232.14 467.365 230.764 448.066C229.546 430.972 236.297 413.872 247.47 401.108C266.961 378.841 293.664 367.554 322.818 365.706ZM335.624 506.487C359.604 503.864 382.926 495.995 398.548 476.563C407.115 465.906 411.492 453.03 409.962 439.356C408.208 423.679 399.003 410.424 386.858 400.77C369.786 387.2 344.581 378.189 322.597 380.605C322.319 380.635 322.041 380.671 321.763 380.705C298.869 382.423 275.332 391.828 260.049 409.479C250.358 420.671 245.12 433.789 246.195 448.698C247.306 464.104 255.123 476.449 266.713 486.326C286.028 502.784 310.941 507.338 335.624 506.487Z" fill="white"/>
<path d="M323.161 398.174C332.881 397.771 343.236 398.554 351.135 404.928C354.322 407.5 356.683 410.92 357.02 415.084C357.299 418.527 355.942 421.874 353.639 424.403C349.13 429.355 341.44 432.045 334.869 432.214C334.945 437.98 333.71 456.45 335.512 460.678C336.376 462.706 338.831 464.315 340.813 465.085C343.808 466.249 347.199 466.557 350.373 466.136C362.389 464.542 363.074 455.901 371.077 452.697C372.454 452.145 374.047 451.938 375.414 452.643C377.268 453.599 378.799 456.1 379.384 458.048C380.05 460.262 379.439 462.946 378.373 464.938C374.442 472.282 365.498 478.106 357.604 480.227C348.216 482.749 338.932 481.327 330.604 476.451C329.471 475.603 328.413 474.529 327.356 473.581C322.632 477.783 317.197 480.302 310.943 481.13C301.212 482.418 291.632 479.617 283.934 473.584C279.888 470.414 275.711 466.071 275.256 460.701C275.06 458.392 275.476 456.182 277.135 454.477C278.518 453.055 280.358 452.322 282.34 452.433C287.669 452.733 290.296 457.878 293.563 461.315C296.676 464.592 300.073 466.313 304.64 466.392C308.244 466.453 314.066 465.538 316.703 462.864C318.216 461.329 319.178 459.441 319.713 457.362C321.029 452.251 320.135 438.848 320.196 432.839C315.176 431.829 310.176 430.505 305.89 427.588C302.361 425.187 299.534 421.741 298.877 417.426C298.348 413.957 299.402 410.516 301.52 407.751C306.502 401.247 315.473 399.171 323.161 398.174Z" fill="white"/>
<path d="M251.091 326.835C261.143 326.577 269.517 334.483 269.836 344.533C270.156 354.583 262.301 363.006 252.253 363.387C242.117 363.772 233.605 355.833 233.283 345.695C232.961 335.558 240.951 327.095 251.091 326.835Z" fill="white"/>
<path d="M400.483 327.385C410.218 325.422 419.707 331.705 421.7 341.434C423.693 351.163 417.44 360.671 407.717 362.694C397.951 364.727 388.392 358.44 386.39 348.668C384.388 338.896 390.705 329.356 400.483 327.385Z" fill="white"/>
<path d="M549.681 23.0938C551.05 23.0197 552.567 22.9657 553.91 23.257C555.752 23.6566 557.489 24.7485 558.446 26.4007C559.286 27.8508 559.385 29.6074 559.499 31.2403C560.176 40.9377 559.519 51.0571 559.488 60.7941C559.456 70.8451 560.894 85.2841 558.602 94.7591C556.926 101.688 552.935 107.293 546.721 110.886C541.119 114.125 533.038 115.05 526.788 113.2C522.992 112.076 519.847 109.698 517.96 106.193C516.153 102.838 515.768 99.0031 517.002 95.3861C518.706 90.3931 523.178 86.6581 527.86 84.5441C533.864 81.8321 540.373 81.5571 546.496 83.9831L547.098 84.2281L547.096 37.3478C542.461 39.2044 537.262 40.2038 532.436 41.4959C520.138 44.7881 507.674 47.5811 495.465 51.1791L495.454 56.1171L495.423 88.9791C495.448 96.0381 496.118 103.799 494.92 110.744C493.737 117.606 490.334 123.609 484.558 127.633C479.36 131.255 472.697 133.012 466.43 131.776C461.87 130.878 457.301 128.194 454.836 124.164C453.251 121.572 452.963 118.588 453.816 115.695C455.21 110.969 459.12 107.241 463.325 104.908C469.115 101.695 475.347 100.682 481.715 102.577L482.389 102.783C482.302 95.4111 481.131 45.1121 483.313 42.4045C484.492 40.942 487.696 39.8933 489.489 39.2916C497.058 36.7504 505.187 35.0547 512.926 33.038C525.205 29.8265 537.457 26.5116 549.681 23.0938Z" fill="white"/>
<path d="M204.424 0.574316C206.468 0.262616 209.315 0.0241162 211.072 1.33882C214.097 3.60222 214.143 8.83821 214.737 12.324C223.719 23.2085 239.012 25.3408 243.755 42.8008C245.685 49.9031 244.594 59.1051 240.647 65.3931C239.497 67.2241 238.257 68.6491 236.035 69.0591C233.993 69.4351 231.765 68.9191 230.081 67.7121C224.18 63.4821 231.792 54.0591 230.052 46.2471C228.243 38.1269 220.579 34.0345 214.033 30.1004L214.004 89.6251C213.931 91.6741 213.751 93.6301 213.228 95.6211C211.538 102.041 206.321 107.002 200.664 110.141C193.069 114.357 183.629 115.625 175.277 113.051C169.788 111.36 164.559 107.827 162.015 102.534C160.087 98.5241 159.945 93.6111 161.453 89.4351C163.549 83.6271 169.059 79.2161 174.554 76.7201C183.137 72.8221 192.358 73.4451 201.03 76.7121L201.018 28.1908C201.008 20.9332 200.37 13.0842 201.122 5.88882C201.4 3.22112 202.416 2.26032 204.424 0.574316Z" fill="white"/>
<path d="M122.042 477.042C122.847 477.039 123.657 477.036 124.461 477.113C126.523 477.31 128.783 478.353 130.085 480.002C135.495 486.857 123.782 496.063 122.831 505.264C121.715 516.076 130.17 524.401 136.19 532.202C142.518 540.403 145.391 550.121 143.996 560.433C142.64 570.454 137.618 581.788 129.436 587.985C128.517 588.009 127.597 588.044 126.683 587.912C124.239 587.559 121.675 585.967 120.34 583.877C116.277 577.523 127.148 567.701 128.581 560.522C131.456 546.116 120.211 538.151 113.386 527.546C107.99 519.161 106.017 509.551 108.21 499.779C110.068 491.496 114.666 481.708 122.042 477.042Z" fill="white"/>
<path d="M80 508.044C80.924 508.019 81.787 508.021 82.704 508.164C84.884 508.506 87.36 509.215 88.557 511.248C91.338 515.969 85.6649 523.484 84.2869 528.017C81.2089 538.148 92.739 545.728 96.898 553.91C99.975 559.965 100.271 566.146 98.1279 572.566C96.2899 578.075 92.558 584.359 87.267 587.021C85.745 587.201 84.416 587.259 82.905 586.92C81.069 586.509 79.29 585.939 78.363 584.131C75.89 579.303 81.8669 571.764 83.4289 567.285C86.3029 559.049 74.362 550.203 70.833 543.142C67.515 536.501 67.425 528.399 69.904 521.447C71.729 516.328 74.923 510.408 80 508.044Z" fill="white"/>
</svg>
