<?xml version="1.0" encoding="utf-8"?>
<!-- Generator: Adobe Illustrator 23.0.3, SVG Export Plug-In . SVG Version: 6.00 Build 0)  -->
<svg version="1.1" id="Layer_1" xmlns="http://www.w3.org/2000/svg" xmlns:xlink="http://www.w3.org/1999/xlink" x="0px" y="0px"
	 viewBox="0 0 128 128" style="enable-background:new 0 0 128 128;" xml:space="preserve">
<style type="text/css">
	.st0{fill:#FF6900;}
	.st1{fill:#FFFFFF;}
</style>
<g>
	<path class="st0" d="M64,0L64,0C28.7,0,0,28.7,0,64v0c0,35.3,28.7,64,64,64h0c35.3,0,64-28.7,64-64v0C128,28.7,99.3,0,64,0z"/>
	<path class="st1" d="M69.9,52.6c-6.5-1.4-13.6-3.3-17.4-8.9c-0.1-0.1-0.2-0.2-0.3-0.1c-0.1,0-0.2,0.1-0.2,0.3c0,0.3,0,0.6,0.1,1
		l-0.5,0.2c-1-1.4-1.2-3.1-0.2-4.3c1.4-1.8,4.3-1.6,6-0.5l-0.2,0.5c-0.9-0.2-1.8-0.2-2.5,0.3c-0.6,0.4-0.7,0.9-0.3,1.6
		c3.1,5.8,12.3,7.1,23.2,6.3c1.1-0.1,1.4-0.6,1.5-1.1c0.9-3.8,2.7-7.1,5.2-9.7c-2,0.3-3.8,0.3-5.4,0.4C73.2,38.7,70,38,69,37.2
		l0.2-0.5c0.6,0.2,1.2,0.3,1.3,0.1c0.2-0.2,0-0.4-0.2-0.6c-1.1-1-5.9-5.9-5.8-5.9c-0.5-4.2-6.6-4.3-9-0.2l-0.8-0.2
		c0.2-0.9,0.6-1.6,0.9-2.2c-5,1.1-7.9,5.7-8.4,10c-2.2,18.8,26.3,14.5,34.4,22c0.2,0.1,0.5,0.7,0.8,0.3C82.7,59,79.1,54.7,69.9,52.6
		z M75.1,94.4c-7.9-0.2-13.3-1.3-16.4-2c0,0,0,0,0,0c0.3-1.9,0.5-3.8,0.6-5.6c5.4,1.5,12.9,2.3,19.2,1.9c10.9-0.8,19.2-4.9,23.8-7.8
		c0,0,0,0,0,0c-2.8,7-13.2,11.4-23.3,12.6c-0.1,0.5-0.1,1-0.2,1.5c0,0,0,0,0,0c7.6-0.4,14.8-2.9,18-5.1c0,0,0,0,0,0
		c-1.9,6.9-11.1,9.7-19.6,10.1c-0.2,0.5-0.5,1.1-0.7,1.5c0,0,0,0,0,0c4.9,0.1,9.6-0.8,12.4-1.7c0,0,0,0,0,0
		c-0.3,0.6-0.7,1.2-1.2,1.8c-2.4,2.8-6.8,5-12,6.1c-2.7,0.5-5.5,0.8-8.5,0.7C72.6,103.6,74.7,96.5,75.1,94.4z"/>
</g>
</svg>
