<svg width="255" height="319" viewBox="0 0 255 319" fill="none" xmlns="http://www.w3.org/2000/svg">
<path d="M16.4993 150.749C26.9193 150.727 70.2593 149.554 77.3993 151.175C79.5093 151.656 80.0793 152.118 81.2793 153.854C81.1993 155.701 80.9693 156.465 79.8393 157.945C74.1693 160.869 25.8293 159.422 15.3094 159.551C21.9093 162.818 29.0592 170.591 34.6992 175.471C49.0892 187.921 112.239 246.258 122.779 250.597C125.339 251.647 128.689 252.633 131.319 251.437C135.209 249.677 138.789 247.097 142.079 244.412C149.939 238.003 235.639 163.805 237.189 159.637C227.519 159.181 185.099 161.193 180.039 157.999C179.219 156.203 178.859 155.854 179.219 153.851C184.819 148.433 205.529 150.752 213.309 150.791C221.649 150.745 239.199 148.623 246.369 153.271C250.009 155.636 252.529 159.177 253.389 163.456C255.249 172.655 254.019 184.291 254.019 193.703L253.889 256.944C253.839 271.121 255.269 286.378 253.939 300.411C253.569 304.306 252.419 308.351 250.159 311.582C247.729 315.049 245.939 315.997 241.839 316.693C229.929 318.713 216.979 317.794 204.899 317.802L145.279 317.797L60.7893 317.836C46.2193 317.84 31.2093 318.567 16.6793 317.61C13.6193 317.408 11.2593 316.618 8.7593 314.793C3.9593 311.289 1.99926 306.584 1.08926 300.864C-0.200742 292.675 0.469292 283.687 0.499292 275.403L0.659326 232.458L0.509302 191.486C0.469302 183.502 -0.0106789 175.252 0.779321 167.309C1.15932 163.479 1.95932 159.872 4.27932 156.727C7.43932 152.44 11.5693 151.543 16.4993 150.749ZM238.439 309.385C236.849 305.835 164.619 241.874 160.339 239.855C157.509 245.774 140.459 257.515 134.079 259.705C128.589 261.591 123.259 261.512 118.009 258.905C110.709 255.276 99.1092 241.485 93.0792 240.02C86.7192 246.996 19.8093 307.153 15.5193 309.384C71.1693 310.197 126.899 309.576 182.559 309.566C201.109 309.597 219.919 310.294 238.439 309.385ZM9.35928 301.947C13.9393 299.992 46.0193 271.542 48.7793 267.18C54.8093 263.531 83.0993 238.334 86.0193 233.476C84.4393 230.278 12.9792 167.935 10.6992 167.368C10.1592 167.233 9.86927 167.254 9.34927 167.249C10.3593 170.325 10.6493 296.7 9.35928 301.947ZM167.569 234.07C171.629 236.504 203.629 264.214 204.499 267.029C209.089 269.59 243.079 299.124 243.969 302.189C244.739 300.423 244.999 298.9 245.069 296.992C245.539 284.721 245.959 172.198 244.769 168.535C244.669 168.226 244.429 167.822 244.289 167.557L242.909 167.251C240.789 170.413 171.899 231.978 167.569 234.07Z" fill="white"/>
<path d="M124.25 0.711095L124.69 0.660101C147.27 -1.7589 169.76 3.49709 187.47 18.1161C203.37 31.1501 213.35 50.0361 215.16 70.5141C217.06 91.1431 210.64 111.675 197.34 127.556C179.55 148.425 156.69 154.574 130.45 156.544C128.42 158.784 126.61 160.418 124.02 162.001C123.93 162.298 123.88 162.613 123.74 162.892C120.89 168.588 105.82 175.776 99.8395 177.494C95.3195 178.792 90.1295 179.811 85.8195 177.438C79.1695 168.349 93.6395 154.828 90.7095 144.327C89.2895 139.269 73.9495 126.226 69.8295 120.089C65.0095 112.915 61.7296 103.114 59.9196 94.7301C55.6296 74.8031 58.3496 53.4231 69.5296 36.1381C82.4596 16.1421 101.41 5.5611 124.25 0.711095ZM91.7195 170.671C101.98 168.25 115.77 161.794 121.83 152.566C122 152.303 122.18 151.888 122.3 151.622C131.24 146.521 141.24 147.144 151.05 145.112C176.71 139.673 197.16 120.324 204.01 95.0051C208.74 77.8121 206.38 59.4391 197.439 44.0061C188.079 28.0621 172.88 16.3891 155.06 11.4611C145.4 8.8931 135.3 8.74711 125.39 9.71311C105.06 13.8601 88.9595 23.3261 77.4395 41.0161C67.6795 56.0011 64.8096 74.4591 68.5196 91.8581C70.3196 100.26 74.0996 110.666 79.3096 117.703C88.7996 130.539 102.3 133.427 99.3896 152.554C98.6196 157.573 96.8296 163.683 94.1396 168.014C93.5096 169.035 92.6295 169.894 91.7195 170.671Z" fill="white"/>
<path d="M130.461 75.729C134.521 75.112 138.611 75.074 142.531 76.436C152.161 79.787 162.551 89.4729 166.891 98.6549C169.291 103.717 169.611 109.225 167.611 114.478C166.181 118.305 163.271 121.389 159.521 123.019C152.521 126.116 146.151 124.493 139.371 121.852C137.491 121.041 124.501 126.396 116.861 124.476C111.821 123.207 108.041 119.79 105.541 115.297C103.401 111.452 103.091 107.179 104.321 102.988C107.321 92.746 121.391 80.644 130.461 75.729ZM136.881 112.848C137.101 112.861 137.331 112.869 137.551 112.886C144.731 113.428 152.101 119.298 158.901 113.26C160.361 111.962 161.001 110.105 160.961 108.179C160.841 101.638 154.311 94.7799 149.721 90.7669C145.241 86.8419 140.621 83.376 134.381 83.901C134.101 83.924 133.841 83.9549 133.571 83.9809C126.111 88.0739 114.481 96.7009 112.241 105.429C111.731 107.436 111.891 109.497 112.981 111.291C114.761 114.237 118.011 115.705 121.271 116.342C127.521 117.562 131.191 114.048 136.881 112.848Z" fill="white"/>
<path d="M147.941 34.4691C151.611 33.9191 155.251 33.4261 158.681 35.3211C162.401 37.3781 164.711 41.1521 165.741 45.1781C167.301 51.2291 166.401 58.3761 163.171 63.7411C160.971 67.3861 157.841 70.0341 153.651 71.0091C151.881 71.9421 149.421 71.5661 147.511 71.0881C144.611 70.3611 142.371 68.0501 140.881 65.5411C137.571 59.9821 136.891 52.8711 138.521 46.6711C140.071 40.7991 142.741 37.5381 147.941 34.4691ZM153.061 62.2291C155.591 61.0871 156.801 59.5281 157.851 56.9571C159.161 53.7171 159.591 49.9071 158.201 46.6231C157.331 44.5721 156.181 43.4461 154.271 42.3631C152.311 42.1771 150.751 42.2951 148.831 42.7211C145.991 47.7011 144.571 52.5381 146.121 58.2851C146.551 59.8711 147.081 61.3121 148.281 62.4761C149.371 62.8011 151.141 63.1491 152.271 62.6751C152.551 62.5581 152.791 62.3781 153.061 62.2291Z" fill="white"/>
<path d="M116.739 34.47C119.989 33.89 123.869 33.529 126.919 35.039C130.759 36.937 133.379 40.927 134.589 44.937C136.479 51.262 136.139 59.069 132.959 64.936C131.109 68.343 128.969 70.333 125.169 71.425C123.849 71.793 122.549 71.731 121.189 71.553C117.709 71.094 114.229 69.313 112.099 66.48C108.499 61.686 107.539 54.058 108.409 48.268C109.349 41.995 111.639 38.219 116.739 34.47ZM123.699 62.516C126.359 60.752 127.349 58.912 127.949 55.771C128.649 52.161 128.389 48.47 126.349 45.301C125.309 43.68 124.229 42.925 122.449 42.257C121.009 42.386 119.569 42.485 118.139 42.721C115.919 48.869 115.169 55.103 118.009 61.191C118.609 62.482 118.919 62.662 120.079 63.467C121.399 63.281 122.589 63.287 123.699 62.516Z" fill="white"/>
<path d="M170.581 59.225C174.031 58.773 177.181 58.593 180.311 60.455C183.691 62.467 185.811 66.215 186.611 69.995C187.671 75.06 186.851 80.76 183.961 85.106C181.751 88.441 179.201 89.876 175.421 90.682C174.431 91.035 173.661 91.238 172.591 91.224C169.771 91.185 167.111 90.383 165.191 88.214C162.151 84.776 161.071 79.487 161.441 75.001C162.011 68.072 165.391 63.532 170.581 59.225ZM173.941 82.822C176.071 82.029 177.291 81.24 178.281 79.126C179.481 76.605 179.901 73.748 178.881 71.099C178.271 69.498 177.071 68.047 175.381 67.52C174.371 67.204 173.311 67.365 172.281 67.477C170.141 70.518 168.141 74.15 168.731 78.04C169.041 80.123 170.211 81.121 171.881 82.15C172.591 82.582 173.121 82.743 173.941 82.822Z" fill="white"/>
<path d="M94.3606 59.225C97.7006 58.745 100.271 58.739 103.271 60.51C107.321 62.9 109.891 67.394 111.021 71.849C112.241 76.623 112.001 82.02 109.261 86.245C107.271 89.318 105.311 90.232 101.891 90.921C100.661 91.108 99.4906 91.205 98.2506 90.982C94.3806 90.281 91.1606 88.009 89.0906 84.665C86.2406 80.033 85.6506 74.093 86.9006 68.864C88.0206 64.165 90.3706 61.713 94.3606 59.225ZM100.461 82.788C102.351 81.564 103.341 81.078 103.961 78.764C104.751 75.832 103.901 72.454 102.121 70.058C101.351 69.015 100.311 68.281 99.2406 67.563C98.1906 67.488 97.2405 67.415 96.1905 67.475C94.1705 70.978 93.4806 74.315 94.6506 78.34C95.2906 80.546 96.5206 81.566 98.4606 82.646L100.461 82.788Z" fill="white"/>
</svg>
