<svg width="229" height="300" viewBox="0 0 229 300" fill="none" xmlns="http://www.w3.org/2000/svg">
<path d="M45.0885 0.333617C48.2496 -0.0263828 51.6576 -0.133381 54.8216 0.204619C64.6116 1.25162 70.6336 6.19961 76.6416 13.6176C81.1386 10.8016 86.3346 8.8976 91.4216 7.4426C110.655 1.9406 133.149 3.82662 150.677 13.5536C152.94 10.6086 155.601 7.99261 158.585 5.78061C165.269 0.840608 173.278 -0.82938 181.438 0.39862C191.096 1.86762 199.762 7.14961 205.495 15.0606C210.566 22.0726 212.571 30.8456 211.051 39.3656C209.331 48.8536 204.077 54.3506 196.396 59.6256C200.276 69.7366 202.803 80.2936 202.685 91.1816C202.485 109.683 195.408 128.136 182.118 141.118C195.157 150.805 206.79 162.237 215.105 176.307C224.777 192.672 231.851 215.542 226.762 234.333C224.828 241.472 220.751 248.246 214.178 251.96C206.277 256.423 197.489 255.643 189.108 253.206C189.223 260.039 189.651 267.11 188.408 273.86C186.589 283.743 181.639 289.575 173.565 295.156C167.707 298.037 161.29 299.604 154.763 299.747C145.356 299.978 135.471 297.47 128.623 290.692C122.197 284.33 120.917 277.421 120.937 268.713L106.343 269.34C105.882 278.008 104.04 284.805 97.5926 290.982C90.6936 297.591 81.4476 300.176 72.0556 299.828C62.3306 299.468 53.3276 296.201 46.7196 288.848C37.3311 278.399 37.7932 266.486 38.5792 253.367C33.3424 255.113 28.6486 255.738 23.1269 255.199C16.755 254.577 11.092 251.691 7.04639 246.694C-0.0876145 237.882 -0.688013 225.361 0.456687 214.562C3.63299 184.597 22.1159 158.333 45.1118 139.892C38.8886 132.778 33.6854 124.453 30.4616 115.564C23.8255 97.7536 24.5948 78.0266 32.5978 60.7886C25.7627 55.8246 20.5218 50.5976 18.2423 42.2186C15.9734 33.8776 17.3784 24.4806 21.7092 17.0356C26.8658 8.17061 35.3303 2.85062 45.0885 0.333617ZM178.542 131.884C189.777 116.531 195.702 99.6396 192.755 80.4126C191.49 72.1576 188.601 64.9876 185.665 57.2516C193.398 50.6576 201.012 46.7566 201.974 35.6336C202.532 29.1666 200.186 22.8736 195.979 17.9916C191.493 12.7296 185.096 9.47261 178.203 8.94061C172.85 8.56061 167.618 10.1796 163.544 13.7066C160.567 16.2826 156.147 23.4196 152.126 23.1236C146.394 22.7026 140.783 18.1766 135.237 16.4776C119.475 11.7046 102.562 12.4036 87.2476 18.4616C82.6626 20.2346 78.3026 22.7526 73.6826 24.3576C67.2766 17.6126 62.8556 9.33962 52.4736 9.04962C50.3536 8.99062 48.2456 9.1416 46.1396 9.3696C38.4769 11.9586 32.4206 16.3516 28.7598 23.7566C26.0355 29.2676 25.4647 35.5076 27.5496 41.3306C30.9367 50.7906 41.6637 54.3286 42.5583 57.0426C43.3798 59.5346 37.1949 73.6926 36.3768 77.6036C29.736 109.346 48.5226 139.057 77.2476 151.999C99.2716 161.921 126.101 162.3 148.542 153.521C159.978 149.047 170.868 141.529 178.542 131.884ZM173.214 200.945C172.166 196.35 169.934 190.738 172.644 186.437C173.096 185.72 174.042 185.297 174.751 184.836C176.572 185.006 177.346 185.062 178.612 186.606C180.495 188.905 181.03 193.254 181.495 196.127C182.521 202.283 183.206 208.491 183.544 214.723C184.07 225.036 181.988 243.512 195.817 246.312C200.439 247.248 206.052 246.077 209.846 243.32C214.995 239.577 218.186 232.107 219.043 225.972C221.639 207.379 211.754 186.169 200.563 171.641C193.474 162.44 184.867 154.656 176.039 147.17C154.236 164.045 129.289 171.229 101.839 167.763C90.3776 166.316 77.1866 162.822 67.2446 156.886C61.8396 153.658 56.8616 149.738 51.5356 146.378C30.1551 165.87 10.0516 189.41 8.91189 219.945C8.64259 227.159 9.84499 236.17 15.1472 241.566C18.5363 245.015 24.7132 246.949 29.5248 246.707C33.1301 246.525 36.161 245.225 38.618 242.544C49.4866 230.685 39.3988 187.172 52.4756 184.929C54.2976 185.755 54.7786 186.07 55.4056 188.037C57.6216 194.988 53.8636 205.725 53.8846 213.223C83.2136 227.741 133.301 228.521 164.007 218.379C167.614 217.226 171.092 215.704 174.386 213.837C174.163 209.504 173.944 205.232 173.214 200.945ZM144.242 289.435C152.835 291.052 163.075 291.541 170.658 286.344C176.061 282.642 178.697 276.532 179.772 270.252C182.535 254.099 175.186 239.894 174.936 223.958C135.5 237.575 92.5996 237.33 53.3216 223.263C53.1166 226.954 53.0606 230.84 52.3866 234.473C49.5516 249.765 41.124 268.632 53.3506 282.366C58.0736 287.673 64.9316 290.316 71.9306 290.648C79.4896 291.008 86.4176 288.59 92.0046 283.468C95.6116 280.161 97.0266 276.748 97.1706 271.875C97.2996 267.474 96.5326 262.939 95.9576 258.579C102.222 256.055 110.162 260.825 116.758 259.964C120.383 259.49 126.407 256.784 129.8 258.056C130.886 258.463 131.292 258.879 131.656 259.984C132.645 262.98 130.289 267.271 129.154 269.992C130.316 276.606 131.742 282.047 137.552 286.046C139.566 287.433 141.99 288.49 144.242 289.435Z" fill="white"/>
<path d="M114.178 91.9194C114.647 91.9654 115.115 92.0154 115.582 92.0684C120.652 92.6474 124.673 94.2524 127.789 98.5064C128.881 99.9974 129.42 101.66 129.047 103.505C128.047 108.457 122.226 111.556 118.315 114.116C118.242 114.848 118.193 115.45 118.33 116.18C118.933 119.377 120.708 122.061 123.521 123.769C128.725 126.931 135.24 120.875 140.318 119.642C142.433 120.169 142.334 120.29 143.507 121.98C143.571 124.163 143.558 125.096 142.063 126.892C139.143 130.399 132.484 133.326 127.946 133.286C122.354 133.237 118.71 130.522 114.921 126.81L114.078 126.509C113.513 127.084 112.932 127.645 112.372 128.224C111.114 129.526 110.04 130.581 108.396 131.414C103.832 133.725 98.2548 133.47 93.5448 131.727C89.8168 130.347 86.5168 128.223 84.8008 124.511C84.7998 122.365 84.8998 122.113 86.0918 120.323C92.1998 118.159 95.4998 125.236 101.508 124.759C104.308 124.537 108.253 122.519 109.933 120.226C113.555 115.282 101.791 109.275 100.977 103.561C100.639 101.19 101.547 99.1244 102.99 97.2884C106.026 93.4254 109.51 92.5094 114.178 91.9194Z" fill="white"/>
<path d="M82.7985 55.9104C84.8475 55.7654 87.5405 55.3884 89.3525 56.5454C90.9935 57.5954 91.7305 58.8744 92.1995 60.7034C88.7095 66.8324 74.7525 63.1794 64.7605 77.8284C64.6815 77.9344 64.6165 78.0524 64.5235 78.1454C63.1665 79.4944 62.7025 79.5754 60.8415 79.3894C59.5495 78.1624 58.6945 77.4594 58.4815 75.5414C58.1745 72.7784 59.8775 69.3104 61.4945 67.1154C66.5685 60.2234 74.6745 57.2324 82.7985 55.9104Z" fill="white"/>
<path d="M139.58 56.5614C146.567 55.8734 152.12 56.8264 158.408 60.0554C163.215 62.5244 168.149 66.3114 169.636 71.7534C170.619 75.3494 169.747 77.1374 167.961 80.1514C162.018 78.3684 159.922 70.7454 154.459 67.8144C151.096 66.0094 146.131 65.7134 142.392 64.8224C139.779 64.2004 139.592 64.3234 138.238 62.1194C138.058 59.8374 138.541 58.5754 139.58 56.5614Z" fill="white"/>
<path d="M144.689 79.9835C147.425 78.8825 150.542 79.3435 152.841 81.1905C155.141 83.0375 156.265 85.9825 155.781 88.8925C155.297 91.8025 153.281 94.2245 150.507 95.2275C146.324 96.7395 141.7 94.6206 140.113 90.4636C138.526 86.3066 140.562 81.6445 144.689 79.9835Z" fill="white"/>
<path d="M76.667 80.3005C79.268 79.1285 82.299 79.4475 84.6 81.1365C86.9 82.8245 88.114 85.6205 87.778 88.4545C87.441 91.2885 85.605 93.7225 82.973 94.8235C78.978 96.4955 74.382 94.6465 72.657 90.6735C70.932 86.7015 72.719 82.0795 76.667 80.3005Z" fill="white"/>
</svg>
