<svg width="289" height="217" viewBox="0 0 289 217" fill="none" xmlns="http://www.w3.org/2000/svg">
<mask id="path-1-outside-1_52_33" maskUnits="userSpaceOnUse" x="0.8125" y="0.55542" width="288" height="216" fill="black">
<rect fill="white" x="0.8125" y="0.55542" width="288" height="216"/>
<path d="M87.4565 24.1234C92.049 17.2568 96.9991 11.0378 103.414 5.77371C104.787 4.64724 106.2 3.46688 107.708 2.52857C108.674 1.92733 109.911 1.33045 111.076 1.63979C111.768 1.8239 112.279 2.36876 112.625 2.97311C113.456 4.42606 113.808 6.44629 114.115 8.07992C115.934 17.7692 114.379 27.9003 111.843 37.3058C114.333 40.1989 116.677 43.1176 118.534 46.4733C123.36 55.1941 124.952 65.7074 122.158 75.3341C118.443 88.139 108.954 96.5716 97.6468 102.788C98.0113 107.058 99.4069 111.434 100.36 115.613C100.898 117.972 101.196 120.529 102.026 122.794C108.309 125.187 115.866 126.04 122.533 125.676C126.008 125.486 129.669 124.822 133.114 125.481C135.411 125.921 137.17 127.015 139.053 128.351C143.394 124.654 148.519 121.993 154.329 123.278C156.659 123.794 158.885 124.688 161.241 125.132C166.512 126.126 176.262 124.856 181.133 122.354C181.588 118.276 182.07 113.906 183.006 109.916C180.226 110.02 177.459 109.808 174.782 109.012C170.646 107.781 166.231 104.759 164.158 100.885C164.157 100.801 164.157 100.717 164.155 100.633C164.128 99.7236 163.849 99.822 163.003 99.7871C158.434 99.5996 155.515 99.0339 152.048 95.8068C148.031 92.0676 145.85 86.8542 145.679 81.392C145.57 77.882 146.182 74.4843 147.97 71.4276C149.582 68.6715 151.83 66.4684 154.459 64.6772C156.94 62.9869 159.303 61.7221 161.11 59.2364C163.197 56.3654 164.084 52.8832 165.308 49.6094C167.386 44.0553 170.774 38.893 174.838 34.6002C183.509 25.4414 195.962 20.9 208.421 20.581C219.697 20.2926 231.704 24.1679 239.916 32.0579C242.891 34.9588 245.529 38.1852 247.782 41.6762C253.678 50.8393 260.559 67.0376 260.729 78.0415C260.846 85.5471 259.549 92.5909 254.103 98.1423C250.708 101.603 246.029 103.891 241.143 103.925C241.106 105.54 241.021 107.081 241.266 108.687C241.833 112.411 243.268 116.011 244.725 119.468C246.501 123.655 248.437 127.773 250.527 131.812C252.772 136.138 255.177 140.384 257.217 144.814C260.78 152.549 263.64 161.034 264.769 169.494C265.199 172.719 265.783 176.21 265.343 179.451C266.904 177.856 268.541 176.278 269.84 174.456C275.541 166.468 277.494 155.42 276.509 145.808C276.384 144.588 276.224 143.347 275.939 142.153C275.705 141.174 275.326 140.204 275.186 139.206C275.102 138.604 275.125 137.848 275.492 137.333C275.735 136.991 276.099 136.851 276.499 136.795C277.777 136.613 279.361 137.605 280.268 138.405C284.991 142.566 286.988 152.293 287.392 158.396C288.21 170.778 284.039 184.478 275.769 193.837C271.619 198.534 265.337 203.221 258.851 203.619C258.521 204.143 258.178 204.659 257.824 205.167C254.452 209.935 249.962 213.574 244.108 214.564C239.057 215.419 231.024 215.11 225.725 215.125C222.334 215.135 218.588 215.465 215.248 214.945C213.619 214.692 212.07 214.143 210.734 213.162C209.249 212.071 208.195 210.576 207.969 208.722C207.67 206.275 208.679 203.647 210.23 201.767C212.61 198.883 216.419 196.995 220.13 196.662C219.596 195.99 219.103 195.286 218.656 194.554C214.881 188.363 214.736 180.202 216.451 173.351C217.905 167.541 221.313 162.553 226.462 159.455C229.613 157.876 232.951 157.407 236.44 157.727C237.639 157.976 239.457 158.194 240.359 159.078C240.67 159.382 240.845 159.78 240.84 160.217C240.834 160.715 240.654 161.353 240.246 161.665C238.959 162.651 236.899 161.631 235.456 161.508C232.04 161.217 228.509 162.417 225.904 164.616C221.753 168.12 220 174.23 219.566 179.464C219.118 184.865 220.622 193.467 225.84 196.417C227.34 197.265 231.916 198.038 232.55 199.021C232.758 199.343 232.796 199.764 232.739 200.133C232.637 200.785 232.258 201.463 231.674 201.8C230.281 202.602 225.861 200.674 224.244 200.344C221.46 199.777 217.914 200.768 215.581 202.333C213.938 203.437 212.328 205.224 212.004 207.227C211.871 208.051 212.012 208.851 212.535 209.517C213.632 210.917 215.36 211.067 216.991 211.234C217.009 211.122 217.03 211.011 217.052 210.9C217.492 208.702 218.459 205.881 220.46 204.649C221.066 204.276 221.823 203.969 222.536 204.184C222.929 204.302 223.183 204.485 223.373 204.849C224.242 206.512 222.415 208.009 221.627 209.319C221.279 209.898 221.086 210.62 220.875 211.26C225.585 210.959 230.355 211.05 235.076 210.995C238.014 210.962 240.998 211.066 243.885 210.447C245.94 210.006 247.803 209.221 249.528 208.015C254.519 204.527 257.195 198.899 259.074 193.291C264.637 176.679 259.472 158.59 252.022 143.437C247.438 134.114 242.035 125.186 238.741 115.271C237.586 111.796 236.468 107.709 237.128 104.031C236.485 103.915 235.844 103.792 235.203 103.662C229.229 102.435 224.379 98.4706 221.109 93.4155C220.017 91.7268 219.29 89.6654 218.726 87.7446C216.038 78.6051 217.523 68.9977 219.467 59.8642C219.909 57.7897 220.956 52.72 221.806 51.0705C222.014 50.6767 222.325 50.3468 222.706 50.1166C223.184 49.8318 223.77 49.7191 224.306 49.9026C226.008 50.4848 225.561 52.5022 225.211 53.806C222.36 64.4242 218.938 78.4353 223.398 89.0327C225.348 93.6669 228.742 97.2114 233.409 99.0955C237.322 100.577 241.445 100.307 245.389 99.0983C249.526 97.5703 252.705 94.4925 254.538 90.4835C258.615 81.5711 256.386 70.703 253.061 61.8953C248.029 48.568 240.966 34.5946 227.332 28.4121C223.756 26.79 219.822 25.5779 215.928 25.0243C208.368 23.9489 199.364 24.9819 192.237 27.7025C182.32 31.5638 174.327 39.183 169.995 48.9041C167.943 53.5418 167.421 57.8103 164.097 61.9856C158.847 68.579 151.301 68.4532 149.896 78.5459C149.523 81.2231 149.778 84.2212 150.747 86.7552C151.949 89.9009 154.225 93.4121 157.412 94.8267C160.231 96.0787 162.854 96.289 165.74 95.1541C165.865 95.1049 165.989 95.0513 166.113 94.9981C163.572 92.8053 162.118 88.971 161.88 85.6873C161.828 84.9711 161.77 84.2175 161.819 83.5007C159.368 82.6209 157.332 81.7437 156.121 79.2412C155.56 78.082 155.231 76.3649 155.681 75.1213C156.061 74.0721 156.937 73.3189 157.932 72.8693C160.234 71.8295 168.454 71.7276 170.756 72.6279C171.619 72.9656 172.364 73.7568 172.723 74.6029C173.278 75.9107 173.135 77.4855 172.563 78.7596C171.701 80.7069 170.082 82.2175 168.079 82.9415C167.271 83.2312 166.52 83.4169 165.655 83.4181C166.078 87.4324 166.996 90.7807 170.252 93.4423C172.222 95.0535 175.39 95.8189 177.92 95.5482C181.448 95.1707 184.608 92.9152 186.77 90.1978C187.934 88.7349 188.984 85.9053 191.025 85.6212C191.445 85.5627 191.909 85.6125 192.259 85.872C192.642 86.1564 192.796 86.6234 192.819 87.0816C192.931 89.3006 190.215 92.5277 188.728 94.0875C185.655 97.3118 181.523 99.4501 177.029 99.5036C174.222 99.537 171.848 98.8064 169.358 97.5706C168.65 97.9357 167.935 98.2912 167.236 98.6731C171.247 103.088 174.202 105.709 180.445 105.979C183.511 106.089 186.576 105.737 189.536 104.934C190.74 104.615 191.943 103.991 193.185 103.9C193.789 103.857 194.238 103.903 194.671 104.378C195.015 104.755 195.305 105.518 195.223 106.032C195.126 106.632 194.754 107.043 194.258 107.362C192.35 108.589 189.248 109.024 187.026 109.459C185.384 124.583 181.288 137.316 186.716 152.372C187.443 154.334 188.332 156.233 189.375 158.048C190.092 159.316 190.954 160.574 191.479 161.934L191.497 161.687C191.707 159.027 192.779 156.389 193.489 153.823C195.107 147.981 196.561 141.971 198.763 136.316C199.057 135.561 199.525 134.4 200.17 133.901C200.627 133.546 201.093 133.43 201.669 133.522C202.236 133.612 202.788 134.024 203.073 134.514C203.501 135.249 203.301 135.99 203.064 136.753C202.382 138.946 201.437 141.055 200.75 143.248C198.352 150.907 196.252 158.724 194.203 166.486L189.933 182.789C189.114 185.872 188.457 189.229 187.151 192.147C186.15 194.385 184.734 196.097 182.52 197.231C178.826 199.123 174.205 199.548 172.641 204.087C172.192 205.393 171.957 207.271 172.608 208.551C173.172 209.661 174.275 210.304 175.433 210.638C175.77 210.734 176.11 210.819 176.452 210.892C176.358 207.926 176.963 205.328 179.048 203.098C179.201 202.935 179.245 202.906 179.4 202.782C179.897 202.177 180.376 201.643 181.215 201.59C181.814 201.553 182.49 201.655 182.973 202.036C183.362 202.344 183.486 202.686 183.502 203.162C183.514 203.507 183.449 203.603 183.292 203.912C182.587 205.622 180.891 206.332 180.493 208.783C180.391 209.412 180.399 210.299 180.783 210.836C181.025 210.906 181.251 210.967 181.501 210.996C182.738 211.135 184.074 211.022 185.317 210.995C189.338 210.909 193.429 210.753 196.566 207.877C197.7 206.836 198.438 205.447 199.085 204.069C200.991 200.01 202.393 195.566 203.866 191.33C206.709 183.155 209.358 174.902 212.306 166.765C214.464 160.635 216.909 154.61 219.636 148.712C220.211 147.494 221.108 144.823 222.212 144.059C222.547 143.827 222.843 143.776 223.242 143.866C223.804 143.993 224.539 144.428 224.827 144.946C225.386 145.948 224.608 147.53 224.193 148.471C221.213 155.21 218.374 161.891 215.879 168.829C211.934 179.801 208.574 191.013 204.434 201.907C202.578 206.79 200.563 211.155 195.499 213.393C194.18 213.968 192.793 214.371 191.372 214.594C187.198 215.268 177.306 215.407 173.468 213.914C171.419 213.117 169.562 211.645 168.697 209.579C167.777 207.38 168.004 204.709 168.88 202.532C170.92 197.465 175.464 195.902 180.075 193.887C180.971 193.496 181.796 192.939 182.371 192.135C184.864 188.647 187.611 175.564 188.819 170.825C189.209 169.297 189.524 167.688 190.094 166.217C186.273 160.647 183.797 156.916 181.823 150.31C177.107 151.022 172.053 150.6 167.331 150.16C164.988 149.941 162.655 149.624 160.298 149.702C158.247 151.012 156.487 152.741 154.302 153.845C151.408 155.308 148.476 155.082 145.474 154.084C144.088 154.921 142.753 155.675 141.172 156.092C137.047 157.18 132.495 156.311 129.237 153.508C127.745 152.225 126.438 150.636 124.705 149.665C124.656 149.637 124.606 149.611 124.557 149.584C121.992 149.561 119.434 149.91 116.886 150.155C113.742 150.48 110.583 150.645 107.423 150.65C108.04 155.223 108.407 159.842 108.931 164.427C109.639 170.603 110.533 176.757 111.611 182.879C112.209 186.268 112.598 189.909 114.098 193.039C116.224 193.808 118.405 193.844 120.428 195.029C123.227 196.685 125.246 199.394 126.032 202.55C126.576 204.654 126.438 206.835 125.276 208.718C124.211 210.443 122.183 212.041 120.155 212.47C118.314 212.858 116.214 212.658 114.342 212.645C109.917 212.614 105.015 213.117 101.149 210.523C99.7321 209.573 98.5954 208.31 97.6589 206.892C96.0783 204.497 91.6475 194.33 91.1026 191.52C90.2095 193.444 88.8537 195.273 87.5407 196.927C89.0967 197.642 90.5998 198.41 91.9004 199.542C94.0126 201.378 95.4655 203.883 95.6209 206.717C95.7328 208.753 95.0284 210.638 93.6559 212.141C91.5079 214.492 88.7727 214.903 85.7485 215.057C81.0927 215.293 76.3451 215.108 71.6801 215.104C64.6932 215.097 52.2588 215.752 45.9953 213.703C41.2719 212.157 37.4857 209.235 33.8667 205.942C27.4431 205.17 21.3612 202.625 16.3027 198.591C7.76178 191.844 3.25478 182.024 2.07675 171.359C1.01645 161.76 3.09385 151.526 9.27136 143.921C11.0768 141.698 13.6069 139.05 16.647 138.802C18.0669 138.686 19.4572 139.211 20.5033 140.17C25.4033 144.662 19.1448 154.19 17.66 159.143C16.603 162.67 16.2504 166.282 16.4706 169.952C16.846 176.206 19.5404 181.391 24.1949 185.493C22.8002 179.864 22.7531 173.716 23.3048 167.961C24.3977 157.33 27.4627 146.996 32.3434 137.488C36.1711 129.933 40.481 122.674 43.2726 114.636C44.8361 110.133 45.7024 105.559 46.3956 100.856C46.3423 100.832 46.2881 100.809 46.2355 100.784C44.751 100.07 43.313 99.0413 41.9663 98.0903C35.6823 93.6517 30.0216 87.6181 27.3718 80.2811C23.7721 70.0248 24.3715 58.7617 29.039 48.9452C26.9204 42.6964 26.0029 35.0267 26.1288 28.4411C26.2219 23.5633 27.869 10.4528 31.2761 7.3441C31.7711 6.8927 32.2431 6.71763 32.915 6.78772C34.5817 6.96186 36.5337 8.24503 37.9695 9.04938C45.9115 13.4998 53.7482 19.3325 59.3341 26.5925C66.8222 23.5302 79.7083 21.6648 87.4565 24.1234ZM33.334 11.1802C32.6945 13.3272 31.9901 15.4848 31.5191 17.6755C29.8733 25.3293 29.8459 33.7273 31.3216 41.407C31.825 44.0279 32.6537 46.5496 33.2346 49.1449C32.2646 51.6745 31.1783 54.1823 30.4752 56.8022C28.4107 64.4974 28.7263 73.4609 31.963 80.7692C34.2692 85.9764 38.0704 90.2215 42.4433 93.7943C44.0797 95.1314 49.7575 97.865 50.2996 99.2086C50.5881 99.9242 50.4142 101.115 50.3501 101.881C49.8719 107.577 48.2644 113.159 46.2317 118.479C43.0414 126.829 38.3215 134.317 34.5982 142.401C28.2509 156.182 24.8684 172.344 28.6213 187.324C29.1674 189.505 29.8163 191.761 30.7284 193.815C33.6941 200.491 38.6452 206.67 45.6504 209.331C52.2298 211.83 59.0581 210.545 65.8941 211.023L68.2876 210.982C73.9106 210.95 79.5308 211.072 85.1538 211.08C84.9541 210.434 84.7759 209.678 84.4354 209.094C83.9868 208.323 83.0401 207.454 82.7747 206.638C82.5937 206.081 82.627 205.281 82.9566 204.783C83.1831 204.441 83.5142 204.263 83.9114 204.204C84.7267 204.083 85.5457 204.48 86.1569 204.99C87.8556 206.408 88.6332 209.006 88.7986 211.14C89.8004 210.395 90.7132 209.717 91.2493 208.544C91.7674 207.409 91.7291 206.173 91.2674 205.025C89.4061 200.398 84.2279 200.066 80.0136 200.11C78.5417 200.126 77.0445 200.109 75.5819 200.286C73.9529 200.483 70.8492 201.576 69.3723 200.752C68.9527 200.518 68.6589 200.188 68.5605 199.708C68.4268 199.054 68.4555 198.42 68.9654 197.939C69.7726 197.178 71.3171 197.031 72.3433 196.682C74.7246 195.872 76.9781 193.557 78.4049 191.554C82.67 185.557 84.4077 178.124 83.2435 170.857C81.979 163.327 76.6077 156.116 68.6932 154.881C66.4904 154.537 64.292 154.717 62.0839 154.888C61.2774 154.95 60.3811 155.098 59.5755 155.035C59.1627 155.002 58.6693 154.868 58.3397 154.61C58.0042 154.347 57.8709 153.989 57.8251 153.574C57.7699 153.072 57.8749 152.582 58.2014 152.186C59.3369 150.809 63.025 150.762 64.7247 150.681C70.5041 150.406 75.8239 152.574 80.0442 156.453C84.8485 160.869 87.3983 167.395 87.6438 173.839C87.9699 182.411 85.1373 190.229 79.3523 196.525C80.561 196.292 81.8295 196.267 83.0569 196.185C83.3986 195.839 83.7264 195.48 84.0401 195.108C85.9217 192.891 87.4668 190.24 88.55 187.545C92.8309 176.891 93.6745 160.371 92.7998 149.018C85.8475 146.906 79.4738 143.944 73.5822 139.641C72.4299 138.799 71.1679 137.935 70.1542 136.932C69.5318 136.316 68.6838 135.485 68.7735 134.528C68.8178 134.057 69.1028 133.658 69.4869 133.399C70.1461 132.953 71.0576 132.905 71.7813 133.224C72.7498 133.651 75.7853 136.442 77.0526 137.345C83.1734 141.71 89.9064 144.305 97.234 145.823C99.2929 146.094 101.353 146.36 103.426 146.501C107.573 146.848 111.874 146.593 116.016 146.273C118.971 146.044 122.506 144.801 125.416 145.653C129.553 146.865 131.365 151.839 135.768 152.528C136.455 152.635 136.939 152.694 137.558 152.333C137.814 151.896 137.861 151.628 137.742 151.129C137.211 148.884 134.463 146.818 135.553 144.794C135.755 144.421 135.971 144.193 136.385 144.075C137.05 143.887 137.902 144.264 138.436 144.632C140.078 145.76 141.151 148.29 141.461 150.217C141.556 150.805 141.582 151.411 141.617 152.005C143.036 150.997 144.15 150.017 144.451 148.196C145.049 144.582 142.336 143.498 142.201 141.07C142.188 140.833 142.164 140.597 142.151 140.359C139.87 140.045 138.027 139.408 136.568 137.489C135.562 136.166 135.188 134.548 135.474 132.913C135.598 132.206 135.945 131.532 136.249 130.887C132.368 128.341 127.858 129.316 123.508 129.668C121.603 129.815 119.691 129.843 117.782 129.752C108.622 129.309 96.891 126.411 89.2674 121.248C88.0684 120.436 85.0662 118.641 84.8575 117.06C84.788 116.532 84.9108 116.111 85.2382 115.7C85.6491 115.184 86.2226 114.972 86.8192 114.739C88.4011 115.436 89.4575 116.659 90.8441 117.64C92.9182 119.109 95.149 120.272 97.4511 121.336C96.8726 118.745 96.358 116.137 95.7434 113.556C94.9565 110.251 93.8406 106.785 93.702 103.383C93.6555 102.237 93.7998 101.339 94.2122 100.27C94.2537 100.236 94.2945 100.201 94.3365 100.167C95.511 99.2214 97.029 98.5887 98.3477 97.8594C99.7577 97.08 101.128 96.2009 102.466 95.3043C111.515 89.2402 118.053 79.5733 119.342 68.6622C120.392 59.7747 117.229 50.4188 111.688 43.4743C110.304 41.7403 108.685 40.2098 107.298 38.4846C109.498 29.857 111.27 21.9739 110.549 12.9792C110.363 10.6556 109.812 8.4148 109.56 6.11981C102.356 11.5441 96.6225 17.6409 91.6777 25.1822C92.663 25.5483 94.1901 25.8757 94.6611 26.9302C94.8786 27.4177 94.9091 28.195 94.6864 28.685C94.5035 29.0872 94.2836 29.3243 93.858 29.4514C91.9023 30.0342 87.1117 27.9056 84.9111 27.5408C81.4099 26.9604 77.6009 26.9523 74.0741 27.204C70.7321 27.4427 67.3729 28.1791 64.1674 29.1582C62.5689 29.6467 60.8873 30.3862 59.2406 30.6342C58.6437 30.7239 58.197 30.6598 57.6802 30.3317C55.8606 29.176 53.8304 26.1642 52.1588 24.5137C46.7292 19.1536 40.2399 14.4478 33.334 11.1802ZM147.024 139.724C146.58 139.789 146.136 139.86 145.689 139.9C147.573 142.935 149.173 145.455 148.301 149.178C148.182 149.686 148.067 150.099 147.796 150.55C149.573 151.104 151.205 151.122 152.881 150.246C154.972 149.153 156.364 146.987 158.475 146.059C160.609 145.121 169.623 146.466 172.55 146.587C175.335 146.698 178.124 146.671 180.905 146.504C179.658 141.891 179.575 135.877 180.012 131.14C180.074 130.469 180.627 127.138 180.329 126.718C175.055 128.762 169.118 129.797 163.46 129.385C161.773 129.262 160.027 128.985 158.394 128.543C155.516 127.762 152.359 126.185 149.3 126.938C147.559 127.366 145.648 128.461 144.143 129.417C142.545 130.431 140.576 131.894 139.795 133.675C139.592 134.139 139.498 134.683 139.71 135.162C140.04 135.911 140.96 136.261 141.69 136.462C142.852 136.783 144.061 136.818 145.22 136.456C146.667 136.004 149.337 133.478 150.486 135.469C150.767 135.954 150.807 136.589 150.634 137.119C150.374 137.918 149.319 138.878 148.562 139.229C148.084 139.452 147.532 139.584 147.024 139.724ZM97.0225 149.687C97.73 161.071 96.5437 175.676 93.3699 186.644C94.0742 188.849 95.1222 191.033 95.9873 193.184C97.5427 197.053 100.323 205.894 104.24 207.783C107.23 209.224 111.207 208.675 114.437 208.749C114.226 207.878 114.067 206.824 113.636 206.036C113.034 204.936 110.339 203.321 111.315 201.857C111.695 201.286 112.596 201.061 113.237 201.022C113.882 200.982 114.444 201.247 114.978 201.579C116.951 203.547 118.252 206.149 118.381 208.97C119.776 208.622 121.108 208.275 121.894 206.937C122.532 205.851 122.508 204.541 122.175 203.359C121.604 201.336 120.379 199.396 118.48 198.404C114.526 196.337 111.544 198.742 109.638 193.123C108.7 190.358 108.237 187.315 107.719 184.448C106.43 177.092 105.415 169.691 104.677 162.261C104.262 158.34 103.702 154.399 103.474 150.464C101.466 150.348 98.9256 150.346 97.0225 149.687ZM26.1082 200.02C27.4902 200.57 28.9123 200.922 30.3007 201.431C28.0702 198.222 26.2518 194.671 25.341 190.851C20.0036 188.296 15.8407 182.997 13.9141 177.481C11.2701 169.912 12.1353 161.447 15.1734 154.146C16.2756 151.497 17.785 148.826 18.1279 145.939C18.2647 144.786 18.3569 143.47 17.1931 142.813C12.6304 144.857 9.94568 149.334 8.20588 153.853C4.67442 163.026 5.31566 174.344 9.33419 183.259C12.9285 191.234 18.355 196.137 26.1082 200.02ZM261.155 199.432C261.734 199.117 262.3 198.794 262.917 198.558C271.124 195.01 276.681 187.55 279.896 179.407C284.152 168.628 284.736 157.233 280.751 146.264C280.604 145.858 280.502 145.584 280.164 145.292C281.862 155.76 279.27 168.065 273.006 176.729C270.856 179.703 268.364 181.922 265.272 183.872C264.487 189.349 263.232 194.304 261.155 199.432Z"/>
</mask>
<path d="M87.4565 24.1234C92.049 17.2568 96.9991 11.0378 103.414 5.77371C104.787 4.64724 106.2 3.46688 107.708 2.52857C108.674 1.92733 109.911 1.33045 111.076 1.63979C111.768 1.8239 112.279 2.36876 112.625 2.97311C113.456 4.42606 113.808 6.44629 114.115 8.07992C115.934 17.7692 114.379 27.9003 111.843 37.3058C114.333 40.1989 116.677 43.1176 118.534 46.4733C123.36 55.1941 124.952 65.7074 122.158 75.3341C118.443 88.139 108.954 96.5716 97.6468 102.788C98.0113 107.058 99.4069 111.434 100.36 115.613C100.898 117.972 101.196 120.529 102.026 122.794C108.309 125.187 115.866 126.04 122.533 125.676C126.008 125.486 129.669 124.822 133.114 125.481C135.411 125.921 137.17 127.015 139.053 128.351C143.394 124.654 148.519 121.993 154.329 123.278C156.659 123.794 158.885 124.688 161.241 125.132C166.512 126.126 176.262 124.856 181.133 122.354C181.588 118.276 182.07 113.906 183.006 109.916C180.226 110.02 177.459 109.808 174.782 109.012C170.646 107.781 166.231 104.759 164.158 100.885C164.157 100.801 164.157 100.717 164.155 100.633C164.128 99.7236 163.849 99.822 163.003 99.7871C158.434 99.5996 155.515 99.0339 152.048 95.8068C148.031 92.0676 145.85 86.8542 145.679 81.392C145.57 77.882 146.182 74.4843 147.97 71.4276C149.582 68.6715 151.83 66.4684 154.459 64.6772C156.94 62.9869 159.303 61.7221 161.11 59.2364C163.197 56.3654 164.084 52.8832 165.308 49.6094C167.386 44.0553 170.774 38.893 174.838 34.6002C183.509 25.4414 195.962 20.9 208.421 20.581C219.697 20.2926 231.704 24.1679 239.916 32.0579C242.891 34.9588 245.529 38.1852 247.782 41.6762C253.678 50.8393 260.559 67.0376 260.729 78.0415C260.846 85.5471 259.549 92.5909 254.103 98.1423C250.708 101.603 246.029 103.891 241.143 103.925C241.106 105.54 241.021 107.081 241.266 108.687C241.833 112.411 243.268 116.011 244.725 119.468C246.501 123.655 248.437 127.773 250.527 131.812C252.772 136.138 255.177 140.384 257.217 144.814C260.78 152.549 263.64 161.034 264.769 169.494C265.199 172.719 265.783 176.21 265.343 179.451C266.904 177.856 268.541 176.278 269.84 174.456C275.541 166.468 277.494 155.42 276.509 145.808C276.384 144.588 276.224 143.347 275.939 142.153C275.705 141.174 275.326 140.204 275.186 139.206C275.102 138.604 275.125 137.848 275.492 137.333C275.735 136.991 276.099 136.851 276.499 136.795C277.777 136.613 279.361 137.605 280.268 138.405C284.991 142.566 286.988 152.293 287.392 158.396C288.21 170.778 284.039 184.478 275.769 193.837C271.619 198.534 265.337 203.221 258.851 203.619C258.521 204.143 258.178 204.659 257.824 205.167C254.452 209.935 249.962 213.574 244.108 214.564C239.057 215.419 231.024 215.11 225.725 215.125C222.334 215.135 218.588 215.465 215.248 214.945C213.619 214.692 212.07 214.143 210.734 213.162C209.249 212.071 208.195 210.576 207.969 208.722C207.67 206.275 208.679 203.647 210.23 201.767C212.61 198.883 216.419 196.995 220.13 196.662C219.596 195.99 219.103 195.286 218.656 194.554C214.881 188.363 214.736 180.202 216.451 173.351C217.905 167.541 221.313 162.553 226.462 159.455C229.613 157.876 232.951 157.407 236.44 157.727C237.639 157.976 239.457 158.194 240.359 159.078C240.67 159.382 240.845 159.78 240.84 160.217C240.834 160.715 240.654 161.353 240.246 161.665C238.959 162.651 236.899 161.631 235.456 161.508C232.04 161.217 228.509 162.417 225.904 164.616C221.753 168.12 220 174.23 219.566 179.464C219.118 184.865 220.622 193.467 225.84 196.417C227.34 197.265 231.916 198.038 232.55 199.021C232.758 199.343 232.796 199.764 232.739 200.133C232.637 200.785 232.258 201.463 231.674 201.8C230.281 202.602 225.861 200.674 224.244 200.344C221.46 199.777 217.914 200.768 215.581 202.333C213.938 203.437 212.328 205.224 212.004 207.227C211.871 208.051 212.012 208.851 212.535 209.517C213.632 210.917 215.36 211.067 216.991 211.234C217.009 211.122 217.03 211.011 217.052 210.9C217.492 208.702 218.459 205.881 220.46 204.649C221.066 204.276 221.823 203.969 222.536 204.184C222.929 204.302 223.183 204.485 223.373 204.849C224.242 206.512 222.415 208.009 221.627 209.319C221.279 209.898 221.086 210.62 220.875 211.26C225.585 210.959 230.355 211.05 235.076 210.995C238.014 210.962 240.998 211.066 243.885 210.447C245.94 210.006 247.803 209.221 249.528 208.015C254.519 204.527 257.195 198.899 259.074 193.291C264.637 176.679 259.472 158.59 252.022 143.437C247.438 134.114 242.035 125.186 238.741 115.271C237.586 111.796 236.468 107.709 237.128 104.031C236.485 103.915 235.844 103.792 235.203 103.662C229.229 102.435 224.379 98.4706 221.109 93.4155C220.017 91.7268 219.29 89.6654 218.726 87.7446C216.038 78.6051 217.523 68.9977 219.467 59.8642C219.909 57.7897 220.956 52.72 221.806 51.0705C222.014 50.6767 222.325 50.3468 222.706 50.1166C223.184 49.8318 223.77 49.7191 224.306 49.9026C226.008 50.4848 225.561 52.5022 225.211 53.806C222.36 64.4242 218.938 78.4353 223.398 89.0327C225.348 93.6669 228.742 97.2114 233.409 99.0955C237.322 100.577 241.445 100.307 245.389 99.0983C249.526 97.5703 252.705 94.4925 254.538 90.4835C258.615 81.5711 256.386 70.703 253.061 61.8953C248.029 48.568 240.966 34.5946 227.332 28.4121C223.756 26.79 219.822 25.5779 215.928 25.0243C208.368 23.9489 199.364 24.9819 192.237 27.7025C182.32 31.5638 174.327 39.183 169.995 48.9041C167.943 53.5418 167.421 57.8103 164.097 61.9856C158.847 68.579 151.301 68.4532 149.896 78.5459C149.523 81.2231 149.778 84.2212 150.747 86.7552C151.949 89.9009 154.225 93.4121 157.412 94.8267C160.231 96.0787 162.854 96.289 165.74 95.1541C165.865 95.1049 165.989 95.0513 166.113 94.9981C163.572 92.8053 162.118 88.971 161.88 85.6873C161.828 84.9711 161.77 84.2175 161.819 83.5007C159.368 82.6209 157.332 81.7437 156.121 79.2412C155.56 78.082 155.231 76.3649 155.681 75.1213C156.061 74.0721 156.937 73.3189 157.932 72.8693C160.234 71.8295 168.454 71.7276 170.756 72.6279C171.619 72.9656 172.364 73.7568 172.723 74.6029C173.278 75.9107 173.135 77.4855 172.563 78.7596C171.701 80.7069 170.082 82.2175 168.079 82.9415C167.271 83.2312 166.52 83.4169 165.655 83.4181C166.078 87.4324 166.996 90.7807 170.252 93.4423C172.222 95.0535 175.39 95.8189 177.92 95.5482C181.448 95.1707 184.608 92.9152 186.77 90.1978C187.934 88.7349 188.984 85.9053 191.025 85.6212C191.445 85.5627 191.909 85.6125 192.259 85.872C192.642 86.1564 192.796 86.6234 192.819 87.0816C192.931 89.3006 190.215 92.5277 188.728 94.0875C185.655 97.3118 181.523 99.4501 177.029 99.5036C174.222 99.537 171.848 98.8064 169.358 97.5706C168.65 97.9357 167.935 98.2912 167.236 98.6731C171.247 103.088 174.202 105.709 180.445 105.979C183.511 106.089 186.576 105.737 189.536 104.934C190.74 104.615 191.943 103.991 193.185 103.9C193.789 103.857 194.238 103.903 194.671 104.378C195.015 104.755 195.305 105.518 195.223 106.032C195.126 106.632 194.754 107.043 194.258 107.362C192.35 108.589 189.248 109.024 187.026 109.459C185.384 124.583 181.288 137.316 186.716 152.372C187.443 154.334 188.332 156.233 189.375 158.048C190.092 159.316 190.954 160.574 191.479 161.934L191.497 161.687C191.707 159.027 192.779 156.389 193.489 153.823C195.107 147.981 196.561 141.971 198.763 136.316C199.057 135.561 199.525 134.4 200.17 133.901C200.627 133.546 201.093 133.43 201.669 133.522C202.236 133.612 202.788 134.024 203.073 134.514C203.501 135.249 203.301 135.99 203.064 136.753C202.382 138.946 201.437 141.055 200.75 143.248C198.352 150.907 196.252 158.724 194.203 166.486L189.933 182.789C189.114 185.872 188.457 189.229 187.151 192.147C186.15 194.385 184.734 196.097 182.52 197.231C178.826 199.123 174.205 199.548 172.641 204.087C172.192 205.393 171.957 207.271 172.608 208.551C173.172 209.661 174.275 210.304 175.433 210.638C175.77 210.734 176.11 210.819 176.452 210.892C176.358 207.926 176.963 205.328 179.048 203.098C179.201 202.935 179.245 202.906 179.4 202.782C179.897 202.177 180.376 201.643 181.215 201.59C181.814 201.553 182.49 201.655 182.973 202.036C183.362 202.344 183.486 202.686 183.502 203.162C183.514 203.507 183.449 203.603 183.292 203.912C182.587 205.622 180.891 206.332 180.493 208.783C180.391 209.412 180.399 210.299 180.783 210.836C181.025 210.906 181.251 210.967 181.501 210.996C182.738 211.135 184.074 211.022 185.317 210.995C189.338 210.909 193.429 210.753 196.566 207.877C197.7 206.836 198.438 205.447 199.085 204.069C200.991 200.01 202.393 195.566 203.866 191.33C206.709 183.155 209.358 174.902 212.306 166.765C214.464 160.635 216.909 154.61 219.636 148.712C220.211 147.494 221.108 144.823 222.212 144.059C222.547 143.827 222.843 143.776 223.242 143.866C223.804 143.993 224.539 144.428 224.827 144.946C225.386 145.948 224.608 147.53 224.193 148.471C221.213 155.21 218.374 161.891 215.879 168.829C211.934 179.801 208.574 191.013 204.434 201.907C202.578 206.79 200.563 211.155 195.499 213.393C194.18 213.968 192.793 214.371 191.372 214.594C187.198 215.268 177.306 215.407 173.468 213.914C171.419 213.117 169.562 211.645 168.697 209.579C167.777 207.38 168.004 204.709 168.88 202.532C170.92 197.465 175.464 195.902 180.075 193.887C180.971 193.496 181.796 192.939 182.371 192.135C184.864 188.647 187.611 175.564 188.819 170.825C189.209 169.297 189.524 167.688 190.094 166.217C186.273 160.647 183.797 156.916 181.823 150.31C177.107 151.022 172.053 150.6 167.331 150.16C164.988 149.941 162.655 149.624 160.298 149.702C158.247 151.012 156.487 152.741 154.302 153.845C151.408 155.308 148.476 155.082 145.474 154.084C144.088 154.921 142.753 155.675 141.172 156.092C137.047 157.18 132.495 156.311 129.237 153.508C127.745 152.225 126.438 150.636 124.705 149.665C124.656 149.637 124.606 149.611 124.557 149.584C121.992 149.561 119.434 149.91 116.886 150.155C113.742 150.48 110.583 150.645 107.423 150.65C108.04 155.223 108.407 159.842 108.931 164.427C109.639 170.603 110.533 176.757 111.611 182.879C112.209 186.268 112.598 189.909 114.098 193.039C116.224 193.808 118.405 193.844 120.428 195.029C123.227 196.685 125.246 199.394 126.032 202.55C126.576 204.654 126.438 206.835 125.276 208.718C124.211 210.443 122.183 212.041 120.155 212.47C118.314 212.858 116.214 212.658 114.342 212.645C109.917 212.614 105.015 213.117 101.149 210.523C99.7321 209.573 98.5954 208.31 97.6589 206.892C96.0783 204.497 91.6475 194.33 91.1026 191.52C90.2095 193.444 88.8537 195.273 87.5407 196.927C89.0967 197.642 90.5998 198.41 91.9004 199.542C94.0126 201.378 95.4655 203.883 95.6209 206.717C95.7328 208.753 95.0284 210.638 93.6559 212.141C91.5079 214.492 88.7727 214.903 85.7485 215.057C81.0927 215.293 76.3451 215.108 71.6801 215.104C64.6932 215.097 52.2588 215.752 45.9953 213.703C41.2719 212.157 37.4857 209.235 33.8667 205.942C27.4431 205.17 21.3612 202.625 16.3027 198.591C7.76178 191.844 3.25478 182.024 2.07675 171.359C1.01645 161.76 3.09385 151.526 9.27136 143.921C11.0768 141.698 13.6069 139.05 16.647 138.802C18.0669 138.686 19.4572 139.211 20.5033 140.17C25.4033 144.662 19.1448 154.19 17.66 159.143C16.603 162.67 16.2504 166.282 16.4706 169.952C16.846 176.206 19.5404 181.391 24.1949 185.493C22.8002 179.864 22.7531 173.716 23.3048 167.961C24.3977 157.33 27.4627 146.996 32.3434 137.488C36.1711 129.933 40.481 122.674 43.2726 114.636C44.8361 110.133 45.7024 105.559 46.3956 100.856C46.3423 100.832 46.2881 100.809 46.2355 100.784C44.751 100.07 43.313 99.0413 41.9663 98.0903C35.6823 93.6517 30.0216 87.6181 27.3718 80.2811C23.7721 70.0248 24.3715 58.7617 29.039 48.9452C26.9204 42.6964 26.0029 35.0267 26.1288 28.4411C26.2219 23.5633 27.869 10.4528 31.2761 7.3441C31.7711 6.8927 32.2431 6.71763 32.915 6.78772C34.5817 6.96186 36.5337 8.24503 37.9695 9.04938C45.9115 13.4998 53.7482 19.3325 59.3341 26.5925C66.8222 23.5302 79.7083 21.6648 87.4565 24.1234ZM33.334 11.1802C32.6945 13.3272 31.9901 15.4848 31.5191 17.6755C29.8733 25.3293 29.8459 33.7273 31.3216 41.407C31.825 44.0279 32.6537 46.5496 33.2346 49.1449C32.2646 51.6745 31.1783 54.1823 30.4752 56.8022C28.4107 64.4974 28.7263 73.4609 31.963 80.7692C34.2692 85.9764 38.0704 90.2215 42.4433 93.7943C44.0797 95.1314 49.7575 97.865 50.2996 99.2086C50.5881 99.9242 50.4142 101.115 50.3501 101.881C49.8719 107.577 48.2644 113.159 46.2317 118.479C43.0414 126.829 38.3215 134.317 34.5982 142.401C28.2509 156.182 24.8684 172.344 28.6213 187.324C29.1674 189.505 29.8163 191.761 30.7284 193.815C33.6941 200.491 38.6452 206.67 45.6504 209.331C52.2298 211.83 59.0581 210.545 65.8941 211.023L68.2876 210.982C73.9106 210.95 79.5308 211.072 85.1538 211.08C84.9541 210.434 84.7759 209.678 84.4354 209.094C83.9868 208.323 83.0401 207.454 82.7747 206.638C82.5937 206.081 82.627 205.281 82.9566 204.783C83.1831 204.441 83.5142 204.263 83.9114 204.204C84.7267 204.083 85.5457 204.48 86.1569 204.99C87.8556 206.408 88.6332 209.006 88.7986 211.14C89.8004 210.395 90.7132 209.717 91.2493 208.544C91.7674 207.409 91.7291 206.173 91.2674 205.025C89.4061 200.398 84.2279 200.066 80.0136 200.11C78.5417 200.126 77.0445 200.109 75.5819 200.286C73.9529 200.483 70.8492 201.576 69.3723 200.752C68.9527 200.518 68.6589 200.188 68.5605 199.708C68.4268 199.054 68.4555 198.42 68.9654 197.939C69.7726 197.178 71.3171 197.031 72.3433 196.682C74.7246 195.872 76.9781 193.557 78.4049 191.554C82.67 185.557 84.4077 178.124 83.2435 170.857C81.979 163.327 76.6077 156.116 68.6932 154.881C66.4904 154.537 64.292 154.717 62.0839 154.888C61.2774 154.95 60.3811 155.098 59.5755 155.035C59.1627 155.002 58.6693 154.868 58.3397 154.61C58.0042 154.347 57.8709 153.989 57.8251 153.574C57.7699 153.072 57.8749 152.582 58.2014 152.186C59.3369 150.809 63.025 150.762 64.7247 150.681C70.5041 150.406 75.8239 152.574 80.0442 156.453C84.8485 160.869 87.3983 167.395 87.6438 173.839C87.9699 182.411 85.1373 190.229 79.3523 196.525C80.561 196.292 81.8295 196.267 83.0569 196.185C83.3986 195.839 83.7264 195.48 84.0401 195.108C85.9217 192.891 87.4668 190.24 88.55 187.545C92.8309 176.891 93.6745 160.371 92.7998 149.018C85.8475 146.906 79.4738 143.944 73.5822 139.641C72.4299 138.799 71.1679 137.935 70.1542 136.932C69.5318 136.316 68.6838 135.485 68.7735 134.528C68.8178 134.057 69.1028 133.658 69.4869 133.399C70.1461 132.953 71.0576 132.905 71.7813 133.224C72.7498 133.651 75.7853 136.442 77.0526 137.345C83.1734 141.71 89.9064 144.305 97.234 145.823C99.2929 146.094 101.353 146.36 103.426 146.501C107.573 146.848 111.874 146.593 116.016 146.273C118.971 146.044 122.506 144.801 125.416 145.653C129.553 146.865 131.365 151.839 135.768 152.528C136.455 152.635 136.939 152.694 137.558 152.333C137.814 151.896 137.861 151.628 137.742 151.129C137.211 148.884 134.463 146.818 135.553 144.794C135.755 144.421 135.971 144.193 136.385 144.075C137.05 143.887 137.902 144.264 138.436 144.632C140.078 145.76 141.151 148.29 141.461 150.217C141.556 150.805 141.582 151.411 141.617 152.005C143.036 150.997 144.15 150.017 144.451 148.196C145.049 144.582 142.336 143.498 142.201 141.07C142.188 140.833 142.164 140.597 142.151 140.359C139.87 140.045 138.027 139.408 136.568 137.489C135.562 136.166 135.188 134.548 135.474 132.913C135.598 132.206 135.945 131.532 136.249 130.887C132.368 128.341 127.858 129.316 123.508 129.668C121.603 129.815 119.691 129.843 117.782 129.752C108.622 129.309 96.891 126.411 89.2674 121.248C88.0684 120.436 85.0662 118.641 84.8575 117.06C84.788 116.532 84.9108 116.111 85.2382 115.7C85.6491 115.184 86.2226 114.972 86.8192 114.739C88.4011 115.436 89.4575 116.659 90.8441 117.64C92.9182 119.109 95.149 120.272 97.4511 121.336C96.8726 118.745 96.358 116.137 95.7434 113.556C94.9565 110.251 93.8406 106.785 93.702 103.383C93.6555 102.237 93.7998 101.339 94.2122 100.27C94.2537 100.236 94.2945 100.201 94.3365 100.167C95.511 99.2214 97.029 98.5887 98.3477 97.8594C99.7577 97.08 101.128 96.2009 102.466 95.3043C111.515 89.2402 118.053 79.5733 119.342 68.6622C120.392 59.7747 117.229 50.4188 111.688 43.4743C110.304 41.7403 108.685 40.2098 107.298 38.4846C109.498 29.857 111.27 21.9739 110.549 12.9792C110.363 10.6556 109.812 8.4148 109.56 6.11981C102.356 11.5441 96.6225 17.6409 91.6777 25.1822C92.663 25.5483 94.1901 25.8757 94.6611 26.9302C94.8786 27.4177 94.9091 28.195 94.6864 28.685C94.5035 29.0872 94.2836 29.3243 93.858 29.4514C91.9023 30.0342 87.1117 27.9056 84.9111 27.5408C81.4099 26.9604 77.6009 26.9523 74.0741 27.204C70.7321 27.4427 67.3729 28.1791 64.1674 29.1582C62.5689 29.6467 60.8873 30.3862 59.2406 30.6342C58.6437 30.7239 58.197 30.6598 57.6802 30.3317C55.8606 29.176 53.8304 26.1642 52.1588 24.5137C46.7292 19.1536 40.2399 14.4478 33.334 11.1802ZM147.024 139.724C146.58 139.789 146.136 139.86 145.689 139.9C147.573 142.935 149.173 145.455 148.301 149.178C148.182 149.686 148.067 150.099 147.796 150.55C149.573 151.104 151.205 151.122 152.881 150.246C154.972 149.153 156.364 146.987 158.475 146.059C160.609 145.121 169.623 146.466 172.55 146.587C175.335 146.698 178.124 146.671 180.905 146.504C179.658 141.891 179.575 135.877 180.012 131.14C180.074 130.469 180.627 127.138 180.329 126.718C175.055 128.762 169.118 129.797 163.46 129.385C161.773 129.262 160.027 128.985 158.394 128.543C155.516 127.762 152.359 126.185 149.3 126.938C147.559 127.366 145.648 128.461 144.143 129.417C142.545 130.431 140.576 131.894 139.795 133.675C139.592 134.139 139.498 134.683 139.71 135.162C140.04 135.911 140.96 136.261 141.69 136.462C142.852 136.783 144.061 136.818 145.22 136.456C146.667 136.004 149.337 133.478 150.486 135.469C150.767 135.954 150.807 136.589 150.634 137.119C150.374 137.918 149.319 138.878 148.562 139.229C148.084 139.452 147.532 139.584 147.024 139.724ZM97.0225 149.687C97.73 161.071 96.5437 175.676 93.3699 186.644C94.0742 188.849 95.1222 191.033 95.9873 193.184C97.5427 197.053 100.323 205.894 104.24 207.783C107.23 209.224 111.207 208.675 114.437 208.749C114.226 207.878 114.067 206.824 113.636 206.036C113.034 204.936 110.339 203.321 111.315 201.857C111.695 201.286 112.596 201.061 113.237 201.022C113.882 200.982 114.444 201.247 114.978 201.579C116.951 203.547 118.252 206.149 118.381 208.97C119.776 208.622 121.108 208.275 121.894 206.937C122.532 205.851 122.508 204.541 122.175 203.359C121.604 201.336 120.379 199.396 118.48 198.404C114.526 196.337 111.544 198.742 109.638 193.123C108.7 190.358 108.237 187.315 107.719 184.448C106.43 177.092 105.415 169.691 104.677 162.261C104.262 158.34 103.702 154.399 103.474 150.464C101.466 150.348 98.9256 150.346 97.0225 149.687ZM26.1082 200.02C27.4902 200.57 28.9123 200.922 30.3007 201.431C28.0702 198.222 26.2518 194.671 25.341 190.851C20.0036 188.296 15.8407 182.997 13.9141 177.481C11.2701 169.912 12.1353 161.447 15.1734 154.146C16.2756 151.497 17.785 148.826 18.1279 145.939C18.2647 144.786 18.3569 143.47 17.1931 142.813C12.6304 144.857 9.94568 149.334 8.20588 153.853C4.67442 163.026 5.31566 174.344 9.33419 183.259C12.9285 191.234 18.355 196.137 26.1082 200.02ZM261.155 199.432C261.734 199.117 262.3 198.794 262.917 198.558C271.124 195.01 276.681 187.55 279.896 179.407C284.152 168.628 284.736 157.233 280.751 146.264C280.604 145.858 280.502 145.584 280.164 145.292C281.862 155.76 279.27 168.065 273.006 176.729C270.856 179.703 268.364 181.922 265.272 183.872C264.487 189.349 263.232 194.304 261.155 199.432Z" fill="white"/>
<path d="M87.4565 24.1234C92.049 17.2568 96.9991 11.0378 103.414 5.77371C104.787 4.64724 106.2 3.46688 107.708 2.52857C108.674 1.92733 109.911 1.33045 111.076 1.63979C111.768 1.8239 112.279 2.36876 112.625 2.97311C113.456 4.42606 113.808 6.44629 114.115 8.07992C115.934 17.7692 114.379 27.9003 111.843 37.3058C114.333 40.1989 116.677 43.1176 118.534 46.4733C123.36 55.1941 124.952 65.7074 122.158 75.3341C118.443 88.139 108.954 96.5716 97.6468 102.788C98.0113 107.058 99.4069 111.434 100.36 115.613C100.898 117.972 101.196 120.529 102.026 122.794C108.309 125.187 115.866 126.04 122.533 125.676C126.008 125.486 129.669 124.822 133.114 125.481C135.411 125.921 137.17 127.015 139.053 128.351C143.394 124.654 148.519 121.993 154.329 123.278C156.659 123.794 158.885 124.688 161.241 125.132C166.512 126.126 176.262 124.856 181.133 122.354C181.588 118.276 182.07 113.906 183.006 109.916C180.226 110.02 177.459 109.808 174.782 109.012C170.646 107.781 166.231 104.759 164.158 100.885C164.157 100.801 164.157 100.717 164.155 100.633C164.128 99.7236 163.849 99.822 163.003 99.7871C158.434 99.5996 155.515 99.0339 152.048 95.8068C148.031 92.0676 145.85 86.8542 145.679 81.392C145.57 77.882 146.182 74.4843 147.97 71.4276C149.582 68.6715 151.83 66.4684 154.459 64.6772C156.94 62.9869 159.303 61.7221 161.11 59.2364C163.197 56.3654 164.084 52.8832 165.308 49.6094C167.386 44.0553 170.774 38.893 174.838 34.6002C183.509 25.4414 195.962 20.9 208.421 20.581C219.697 20.2926 231.704 24.1679 239.916 32.0579C242.891 34.9588 245.529 38.1852 247.782 41.6762C253.678 50.8393 260.559 67.0376 260.729 78.0415C260.846 85.5471 259.549 92.5909 254.103 98.1423C250.708 101.603 246.029 103.891 241.143 103.925C241.106 105.54 241.021 107.081 241.266 108.687C241.833 112.411 243.268 116.011 244.725 119.468C246.501 123.655 248.437 127.773 250.527 131.812C252.772 136.138 255.177 140.384 257.217 144.814C260.78 152.549 263.64 161.034 264.769 169.494C265.199 172.719 265.783 176.21 265.343 179.451C266.904 177.856 268.541 176.278 269.84 174.456C275.541 166.468 277.494 155.42 276.509 145.808C276.384 144.588 276.224 143.347 275.939 142.153C275.705 141.174 275.326 140.204 275.186 139.206C275.102 138.604 275.125 137.848 275.492 137.333C275.735 136.991 276.099 136.851 276.499 136.795C277.777 136.613 279.361 137.605 280.268 138.405C284.991 142.566 286.988 152.293 287.392 158.396C288.21 170.778 284.039 184.478 275.769 193.837C271.619 198.534 265.337 203.221 258.851 203.619C258.521 204.143 258.178 204.659 257.824 205.167C254.452 209.935 249.962 213.574 244.108 214.564C239.057 215.419 231.024 215.11 225.725 215.125C222.334 215.135 218.588 215.465 215.248 214.945C213.619 214.692 212.07 214.143 210.734 213.162C209.249 212.071 208.195 210.576 207.969 208.722C207.67 206.275 208.679 203.647 210.23 201.767C212.61 198.883 216.419 196.995 220.13 196.662C219.596 195.99 219.103 195.286 218.656 194.554C214.881 188.363 214.736 180.202 216.451 173.351C217.905 167.541 221.313 162.553 226.462 159.455C229.613 157.876 232.951 157.407 236.44 157.727C237.639 157.976 239.457 158.194 240.359 159.078C240.67 159.382 240.845 159.78 240.84 160.217C240.834 160.715 240.654 161.353 240.246 161.665C238.959 162.651 236.899 161.631 235.456 161.508C232.04 161.217 228.509 162.417 225.904 164.616C221.753 168.12 220 174.23 219.566 179.464C219.118 184.865 220.622 193.467 225.84 196.417C227.34 197.265 231.916 198.038 232.55 199.021C232.758 199.343 232.796 199.764 232.739 200.133C232.637 200.785 232.258 201.463 231.674 201.8C230.281 202.602 225.861 200.674 224.244 200.344C221.46 199.777 217.914 200.768 215.581 202.333C213.938 203.437 212.328 205.224 212.004 207.227C211.871 208.051 212.012 208.851 212.535 209.517C213.632 210.917 215.36 211.067 216.991 211.234C217.009 211.122 217.03 211.011 217.052 210.9C217.492 208.702 218.459 205.881 220.46 204.649C221.066 204.276 221.823 203.969 222.536 204.184C222.929 204.302 223.183 204.485 223.373 204.849C224.242 206.512 222.415 208.009 221.627 209.319C221.279 209.898 221.086 210.62 220.875 211.26C225.585 210.959 230.355 211.05 235.076 210.995C238.014 210.962 240.998 211.066 243.885 210.447C245.94 210.006 247.803 209.221 249.528 208.015C254.519 204.527 257.195 198.899 259.074 193.291C264.637 176.679 259.472 158.59 252.022 143.437C247.438 134.114 242.035 125.186 238.741 115.271C237.586 111.796 236.468 107.709 237.128 104.031C236.485 103.915 235.844 103.792 235.203 103.662C229.229 102.435 224.379 98.4706 221.109 93.4155C220.017 91.7268 219.29 89.6654 218.726 87.7446C216.038 78.6051 217.523 68.9977 219.467 59.8642C219.909 57.7897 220.956 52.72 221.806 51.0705C222.014 50.6767 222.325 50.3468 222.706 50.1166C223.184 49.8318 223.77 49.7191 224.306 49.9026C226.008 50.4848 225.561 52.5022 225.211 53.806C222.36 64.4242 218.938 78.4353 223.398 89.0327C225.348 93.6669 228.742 97.2114 233.409 99.0955C237.322 100.577 241.445 100.307 245.389 99.0983C249.526 97.5703 252.705 94.4925 254.538 90.4835C258.615 81.5711 256.386 70.703 253.061 61.8953C248.029 48.568 240.966 34.5946 227.332 28.4121C223.756 26.79 219.822 25.5779 215.928 25.0243C208.368 23.9489 199.364 24.9819 192.237 27.7025C182.32 31.5638 174.327 39.183 169.995 48.9041C167.943 53.5418 167.421 57.8103 164.097 61.9856C158.847 68.579 151.301 68.4532 149.896 78.5459C149.523 81.2231 149.778 84.2212 150.747 86.7552C151.949 89.9009 154.225 93.4121 157.412 94.8267C160.231 96.0787 162.854 96.289 165.74 95.1541C165.865 95.1049 165.989 95.0513 166.113 94.9981C163.572 92.8053 162.118 88.971 161.88 85.6873C161.828 84.9711 161.77 84.2175 161.819 83.5007C159.368 82.6209 157.332 81.7437 156.121 79.2412C155.56 78.082 155.231 76.3649 155.681 75.1213C156.061 74.0721 156.937 73.3189 157.932 72.8693C160.234 71.8295 168.454 71.7276 170.756 72.6279C171.619 72.9656 172.364 73.7568 172.723 74.6029C173.278 75.9107 173.135 77.4855 172.563 78.7596C171.701 80.7069 170.082 82.2175 168.079 82.9415C167.271 83.2312 166.52 83.4169 165.655 83.4181C166.078 87.4324 166.996 90.7807 170.252 93.4423C172.222 95.0535 175.39 95.8189 177.92 95.5482C181.448 95.1707 184.608 92.9152 186.77 90.1978C187.934 88.7349 188.984 85.9053 191.025 85.6212C191.445 85.5627 191.909 85.6125 192.259 85.872C192.642 86.1564 192.796 86.6234 192.819 87.0816C192.931 89.3006 190.215 92.5277 188.728 94.0875C185.655 97.3118 181.523 99.4501 177.029 99.5036C174.222 99.537 171.848 98.8064 169.358 97.5706C168.65 97.9357 167.935 98.2912 167.236 98.6731C171.247 103.088 174.202 105.709 180.445 105.979C183.511 106.089 186.576 105.737 189.536 104.934C190.74 104.615 191.943 103.991 193.185 103.9C193.789 103.857 194.238 103.903 194.671 104.378C195.015 104.755 195.305 105.518 195.223 106.032C195.126 106.632 194.754 107.043 194.258 107.362C192.35 108.589 189.248 109.024 187.026 109.459C185.384 124.583 181.288 137.316 186.716 152.372C187.443 154.334 188.332 156.233 189.375 158.048C190.092 159.316 190.954 160.574 191.479 161.934L191.497 161.687C191.707 159.027 192.779 156.389 193.489 153.823C195.107 147.981 196.561 141.971 198.763 136.316C199.057 135.561 199.525 134.4 200.17 133.901C200.627 133.546 201.093 133.43 201.669 133.522C202.236 133.612 202.788 134.024 203.073 134.514C203.501 135.249 203.301 135.99 203.064 136.753C202.382 138.946 201.437 141.055 200.75 143.248C198.352 150.907 196.252 158.724 194.203 166.486L189.933 182.789C189.114 185.872 188.457 189.229 187.151 192.147C186.15 194.385 184.734 196.097 182.52 197.231C178.826 199.123 174.205 199.548 172.641 204.087C172.192 205.393 171.957 207.271 172.608 208.551C173.172 209.661 174.275 210.304 175.433 210.638C175.77 210.734 176.11 210.819 176.452 210.892C176.358 207.926 176.963 205.328 179.048 203.098C179.201 202.935 179.245 202.906 179.4 202.782C179.897 202.177 180.376 201.643 181.215 201.59C181.814 201.553 182.49 201.655 182.973 202.036C183.362 202.344 183.486 202.686 183.502 203.162C183.514 203.507 183.449 203.603 183.292 203.912C182.587 205.622 180.891 206.332 180.493 208.783C180.391 209.412 180.399 210.299 180.783 210.836C181.025 210.906 181.251 210.967 181.501 210.996C182.738 211.135 184.074 211.022 185.317 210.995C189.338 210.909 193.429 210.753 196.566 207.877C197.7 206.836 198.438 205.447 199.085 204.069C200.991 200.01 202.393 195.566 203.866 191.33C206.709 183.155 209.358 174.902 212.306 166.765C214.464 160.635 216.909 154.61 219.636 148.712C220.211 147.494 221.108 144.823 222.212 144.059C222.547 143.827 222.843 143.776 223.242 143.866C223.804 143.993 224.539 144.428 224.827 144.946C225.386 145.948 224.608 147.53 224.193 148.471C221.213 155.21 218.374 161.891 215.879 168.829C211.934 179.801 208.574 191.013 204.434 201.907C202.578 206.79 200.563 211.155 195.499 213.393C194.18 213.968 192.793 214.371 191.372 214.594C187.198 215.268 177.306 215.407 173.468 213.914C171.419 213.117 169.562 211.645 168.697 209.579C167.777 207.38 168.004 204.709 168.88 202.532C170.92 197.465 175.464 195.902 180.075 193.887C180.971 193.496 181.796 192.939 182.371 192.135C184.864 188.647 187.611 175.564 188.819 170.825C189.209 169.297 189.524 167.688 190.094 166.217C186.273 160.647 183.797 156.916 181.823 150.31C177.107 151.022 172.053 150.6 167.331 150.16C164.988 149.941 162.655 149.624 160.298 149.702C158.247 151.012 156.487 152.741 154.302 153.845C151.408 155.308 148.476 155.082 145.474 154.084C144.088 154.921 142.753 155.675 141.172 156.092C137.047 157.18 132.495 156.311 129.237 153.508C127.745 152.225 126.438 150.636 124.705 149.665C124.656 149.637 124.606 149.611 124.557 149.584C121.992 149.561 119.434 149.91 116.886 150.155C113.742 150.48 110.583 150.645 107.423 150.65C108.04 155.223 108.407 159.842 108.931 164.427C109.639 170.603 110.533 176.757 111.611 182.879C112.209 186.268 112.598 189.909 114.098 193.039C116.224 193.808 118.405 193.844 120.428 195.029C123.227 196.685 125.246 199.394 126.032 202.55C126.576 204.654 126.438 206.835 125.276 208.718C124.211 210.443 122.183 212.041 120.155 212.47C118.314 212.858 116.214 212.658 114.342 212.645C109.917 212.614 105.015 213.117 101.149 210.523C99.7321 209.573 98.5954 208.31 97.6589 206.892C96.0783 204.497 91.6475 194.33 91.1026 191.52C90.2095 193.444 88.8537 195.273 87.5407 196.927C89.0967 197.642 90.5998 198.41 91.9004 199.542C94.0126 201.378 95.4655 203.883 95.6209 206.717C95.7328 208.753 95.0284 210.638 93.6559 212.141C91.5079 214.492 88.7727 214.903 85.7485 215.057C81.0927 215.293 76.3451 215.108 71.6801 215.104C64.6932 215.097 52.2588 215.752 45.9953 213.703C41.2719 212.157 37.4857 209.235 33.8667 205.942C27.4431 205.17 21.3612 202.625 16.3027 198.591C7.76178 191.844 3.25478 182.024 2.07675 171.359C1.01645 161.76 3.09385 151.526 9.27136 143.921C11.0768 141.698 13.6069 139.05 16.647 138.802C18.0669 138.686 19.4572 139.211 20.5033 140.17C25.4033 144.662 19.1448 154.19 17.66 159.143C16.603 162.67 16.2504 166.282 16.4706 169.952C16.846 176.206 19.5404 181.391 24.1949 185.493C22.8002 179.864 22.7531 173.716 23.3048 167.961C24.3977 157.33 27.4627 146.996 32.3434 137.488C36.1711 129.933 40.481 122.674 43.2726 114.636C44.8361 110.133 45.7024 105.559 46.3956 100.856C46.3423 100.832 46.2881 100.809 46.2355 100.784C44.751 100.07 43.313 99.0413 41.9663 98.0903C35.6823 93.6517 30.0216 87.6181 27.3718 80.2811C23.7721 70.0248 24.3715 58.7617 29.039 48.9452C26.9204 42.6964 26.0029 35.0267 26.1288 28.4411C26.2219 23.5633 27.869 10.4528 31.2761 7.3441C31.7711 6.8927 32.2431 6.71763 32.915 6.78772C34.5817 6.96186 36.5337 8.24503 37.9695 9.04938C45.9115 13.4998 53.7482 19.3325 59.3341 26.5925C66.8222 23.5302 79.7083 21.6648 87.4565 24.1234ZM33.334 11.1802C32.6945 13.3272 31.9901 15.4848 31.5191 17.6755C29.8733 25.3293 29.8459 33.7273 31.3216 41.407C31.825 44.0279 32.6537 46.5496 33.2346 49.1449C32.2646 51.6745 31.1783 54.1823 30.4752 56.8022C28.4107 64.4974 28.7263 73.4609 31.963 80.7692C34.2692 85.9764 38.0704 90.2215 42.4433 93.7943C44.0797 95.1314 49.7575 97.865 50.2996 99.2086C50.5881 99.9242 50.4142 101.115 50.3501 101.881C49.8719 107.577 48.2644 113.159 46.2317 118.479C43.0414 126.829 38.3215 134.317 34.5982 142.401C28.2509 156.182 24.8684 172.344 28.6213 187.324C29.1674 189.505 29.8163 191.761 30.7284 193.815C33.6941 200.491 38.6452 206.67 45.6504 209.331C52.2298 211.83 59.0581 210.545 65.8941 211.023L68.2876 210.982C73.9106 210.95 79.5308 211.072 85.1538 211.08C84.9541 210.434 84.7759 209.678 84.4354 209.094C83.9868 208.323 83.0401 207.454 82.7747 206.638C82.5937 206.081 82.627 205.281 82.9566 204.783C83.1831 204.441 83.5142 204.263 83.9114 204.204C84.7267 204.083 85.5457 204.48 86.1569 204.99C87.8556 206.408 88.6332 209.006 88.7986 211.14C89.8004 210.395 90.7132 209.717 91.2493 208.544C91.7674 207.409 91.7291 206.173 91.2674 205.025C89.4061 200.398 84.2279 200.066 80.0136 200.11C78.5417 200.126 77.0445 200.109 75.5819 200.286C73.9529 200.483 70.8492 201.576 69.3723 200.752C68.9527 200.518 68.6589 200.188 68.5605 199.708C68.4268 199.054 68.4555 198.42 68.9654 197.939C69.7726 197.178 71.3171 197.031 72.3433 196.682C74.7246 195.872 76.9781 193.557 78.4049 191.554C82.67 185.557 84.4077 178.124 83.2435 170.857C81.979 163.327 76.6077 156.116 68.6932 154.881C66.4904 154.537 64.292 154.717 62.0839 154.888C61.2774 154.95 60.3811 155.098 59.5755 155.035C59.1627 155.002 58.6693 154.868 58.3397 154.61C58.0042 154.347 57.8709 153.989 57.8251 153.574C57.7699 153.072 57.8749 152.582 58.2014 152.186C59.3369 150.809 63.025 150.762 64.7247 150.681C70.5041 150.406 75.8239 152.574 80.0442 156.453C84.8485 160.869 87.3983 167.395 87.6438 173.839C87.9699 182.411 85.1373 190.229 79.3523 196.525C80.561 196.292 81.8295 196.267 83.0569 196.185C83.3986 195.839 83.7264 195.48 84.0401 195.108C85.9217 192.891 87.4668 190.24 88.55 187.545C92.8309 176.891 93.6745 160.371 92.7998 149.018C85.8475 146.906 79.4738 143.944 73.5822 139.641C72.4299 138.799 71.1679 137.935 70.1542 136.932C69.5318 136.316 68.6838 135.485 68.7735 134.528C68.8178 134.057 69.1028 133.658 69.4869 133.399C70.1461 132.953 71.0576 132.905 71.7813 133.224C72.7498 133.651 75.7853 136.442 77.0526 137.345C83.1734 141.71 89.9064 144.305 97.234 145.823C99.2929 146.094 101.353 146.36 103.426 146.501C107.573 146.848 111.874 146.593 116.016 146.273C118.971 146.044 122.506 144.801 125.416 145.653C129.553 146.865 131.365 151.839 135.768 152.528C136.455 152.635 136.939 152.694 137.558 152.333C137.814 151.896 137.861 151.628 137.742 151.129C137.211 148.884 134.463 146.818 135.553 144.794C135.755 144.421 135.971 144.193 136.385 144.075C137.05 143.887 137.902 144.264 138.436 144.632C140.078 145.76 141.151 148.29 141.461 150.217C141.556 150.805 141.582 151.411 141.617 152.005C143.036 150.997 144.15 150.017 144.451 148.196C145.049 144.582 142.336 143.498 142.201 141.07C142.188 140.833 142.164 140.597 142.151 140.359C139.87 140.045 138.027 139.408 136.568 137.489C135.562 136.166 135.188 134.548 135.474 132.913C135.598 132.206 135.945 131.532 136.249 130.887C132.368 128.341 127.858 129.316 123.508 129.668C121.603 129.815 119.691 129.843 117.782 129.752C108.622 129.309 96.891 126.411 89.2674 121.248C88.0684 120.436 85.0662 118.641 84.8575 117.06C84.788 116.532 84.9108 116.111 85.2382 115.7C85.6491 115.184 86.2226 114.972 86.8192 114.739C88.4011 115.436 89.4575 116.659 90.8441 117.64C92.9182 119.109 95.149 120.272 97.4511 121.336C96.8726 118.745 96.358 116.137 95.7434 113.556C94.9565 110.251 93.8406 106.785 93.702 103.383C93.6555 102.237 93.7998 101.339 94.2122 100.27C94.2537 100.236 94.2945 100.201 94.3365 100.167C95.511 99.2214 97.029 98.5887 98.3477 97.8594C99.7577 97.08 101.128 96.2009 102.466 95.3043C111.515 89.2402 118.053 79.5733 119.342 68.6622C120.392 59.7747 117.229 50.4188 111.688 43.4743C110.304 41.7403 108.685 40.2098 107.298 38.4846C109.498 29.857 111.27 21.9739 110.549 12.9792C110.363 10.6556 109.812 8.4148 109.56 6.11981C102.356 11.5441 96.6225 17.6409 91.6777 25.1822C92.663 25.5483 94.1901 25.8757 94.6611 26.9302C94.8786 27.4177 94.9091 28.195 94.6864 28.685C94.5035 29.0872 94.2836 29.3243 93.858 29.4514C91.9023 30.0342 87.1117 27.9056 84.9111 27.5408C81.4099 26.9604 77.6009 26.9523 74.0741 27.204C70.7321 27.4427 67.3729 28.1791 64.1674 29.1582C62.5689 29.6467 60.8873 30.3862 59.2406 30.6342C58.6437 30.7239 58.197 30.6598 57.6802 30.3317C55.8606 29.176 53.8304 26.1642 52.1588 24.5137C46.7292 19.1536 40.2399 14.4478 33.334 11.1802ZM147.024 139.724C146.58 139.789 146.136 139.86 145.689 139.9C147.573 142.935 149.173 145.455 148.301 149.178C148.182 149.686 148.067 150.099 147.796 150.55C149.573 151.104 151.205 151.122 152.881 150.246C154.972 149.153 156.364 146.987 158.475 146.059C160.609 145.121 169.623 146.466 172.55 146.587C175.335 146.698 178.124 146.671 180.905 146.504C179.658 141.891 179.575 135.877 180.012 131.14C180.074 130.469 180.627 127.138 180.329 126.718C175.055 128.762 169.118 129.797 163.46 129.385C161.773 129.262 160.027 128.985 158.394 128.543C155.516 127.762 152.359 126.185 149.3 126.938C147.559 127.366 145.648 128.461 144.143 129.417C142.545 130.431 140.576 131.894 139.795 133.675C139.592 134.139 139.498 134.683 139.71 135.162C140.04 135.911 140.96 136.261 141.69 136.462C142.852 136.783 144.061 136.818 145.22 136.456C146.667 136.004 149.337 133.478 150.486 135.469C150.767 135.954 150.807 136.589 150.634 137.119C150.374 137.918 149.319 138.878 148.562 139.229C148.084 139.452 147.532 139.584 147.024 139.724ZM97.0225 149.687C97.73 161.071 96.5437 175.676 93.3699 186.644C94.0742 188.849 95.1222 191.033 95.9873 193.184C97.5427 197.053 100.323 205.894 104.24 207.783C107.23 209.224 111.207 208.675 114.437 208.749C114.226 207.878 114.067 206.824 113.636 206.036C113.034 204.936 110.339 203.321 111.315 201.857C111.695 201.286 112.596 201.061 113.237 201.022C113.882 200.982 114.444 201.247 114.978 201.579C116.951 203.547 118.252 206.149 118.381 208.97C119.776 208.622 121.108 208.275 121.894 206.937C122.532 205.851 122.508 204.541 122.175 203.359C121.604 201.336 120.379 199.396 118.48 198.404C114.526 196.337 111.544 198.742 109.638 193.123C108.7 190.358 108.237 187.315 107.719 184.448C106.43 177.092 105.415 169.691 104.677 162.261C104.262 158.34 103.702 154.399 103.474 150.464C101.466 150.348 98.9256 150.346 97.0225 149.687ZM26.1082 200.02C27.4902 200.57 28.9123 200.922 30.3007 201.431C28.0702 198.222 26.2518 194.671 25.341 190.851C20.0036 188.296 15.8407 182.997 13.9141 177.481C11.2701 169.912 12.1353 161.447 15.1734 154.146C16.2756 151.497 17.785 148.826 18.1279 145.939C18.2647 144.786 18.3569 143.47 17.1931 142.813C12.6304 144.857 9.94568 149.334 8.20588 153.853C4.67442 163.026 5.31566 174.344 9.33419 183.259C12.9285 191.234 18.355 196.137 26.1082 200.02ZM261.155 199.432C261.734 199.117 262.3 198.794 262.917 198.558C271.124 195.01 276.681 187.55 279.896 179.407C284.152 168.628 284.736 157.233 280.751 146.264C280.604 145.858 280.502 145.584 280.164 145.292C281.862 155.76 279.27 168.065 273.006 176.729C270.856 179.703 268.364 181.922 265.272 183.872C264.487 189.349 263.232 194.304 261.155 199.432Z" stroke="white" stroke-width="2" mask="url(#path-1-outside-1_52_33)"/>
<path d="M200.964 57.2096C201.421 57.2072 201.838 57.2296 202.277 57.3704C203.583 57.7897 204.536 58.6956 205.112 59.9305C205.948 61.7688 206.035 63.86 205.354 65.761C204.68 67.6083 203.679 68.5843 201.969 69.4164C201.353 69.4348 200.668 69.3656 200.095 69.1264C198.928 68.6391 198.077 67.6261 197.6 66.4768C196.825 64.6158 196.821 62.1953 197.603 60.3361C198.289 58.7053 199.374 57.8542 200.964 57.2096Z" fill="white"/>
<path d="M91.1576 70.179C91.8489 70.1319 92.6436 70.16 93.3286 70.2674C94.2803 70.4166 95.2255 70.9011 95.7806 71.7073C96.3164 72.4864 96.4457 73.4677 96.2569 74.3826C95.7143 77.0122 93.1831 78.2733 91.1299 79.5963C91.0087 81.3732 90.7751 83.8427 91.3508 85.5545C91.5489 86.1439 91.9009 86.6685 92.4788 86.9355C93.3797 87.3514 94.7651 87.0249 95.6348 86.6638C98.0943 85.6433 99.1691 83.2305 100.159 80.9595C100.503 80.1701 101.026 79.025 101.933 78.7602C102.397 78.6247 102.82 78.6427 103.232 78.9156C103.743 79.2533 104.091 79.8029 104.21 80.3991C104.572 82.2137 103.118 84.6386 102.104 86.0682C100.383 88.4956 97.8389 90.4943 94.833 90.9488C92.6763 91.2753 90.866 90.7672 89.1259 89.514C87.0876 90.5809 86.0178 91.9787 83.4284 92.2691C80.2169 92.6292 77.1478 91.2666 74.735 89.2373C74.0363 88.6495 73.2157 87.8623 73.1715 86.8866C73.1444 86.2909 73.4678 85.5452 73.9173 85.1502C75.1827 84.038 77.9465 86.7224 79.0883 87.3641C80.0375 87.8978 81.115 88.2738 82.2054 88.3567C83.373 88.4451 84.4667 88.1398 85.3262 87.3212C87.3156 85.4268 87.1299 82.029 87.2193 79.4988C85.8206 79.262 84.6524 78.9761 83.4764 78.1097C82.2926 77.2378 81.2942 75.8256 81.1116 74.34C81.0132 73.5369 81.2284 72.7849 81.7565 72.1708C83.3234 70.3475 88.7676 70.3403 91.1576 70.179Z" fill="white"/>
<path d="M99.9813 53.7963C100.548 53.7134 101.191 53.6393 101.753 53.7714C103.042 54.0745 104.068 54.9826 104.695 56.1246C105.646 57.8558 105.829 60.0642 105.259 61.9467C104.721 63.7249 103.716 64.7249 102.118 65.5529C101.338 65.6476 100.565 65.6987 99.8131 65.4158C98.5106 64.9255 97.644 63.7844 97.1253 62.5358C96.3337 60.6311 96.2994 58.2788 97.1474 56.3854C97.7542 55.0306 98.6115 54.306 99.9813 53.7963Z" fill="white"/>
<path d="M65.3203 56.2673C65.8365 56.2523 66.3773 56.2246 66.8767 56.376C68.0489 56.7312 68.9885 57.5825 69.5626 58.6501C70.5044 60.4021 70.6825 62.6538 70.0953 64.5463C69.5324 66.3597 68.448 67.5211 66.7866 68.3778C65.9047 68.4242 65.0708 68.3569 64.2773 67.9335C63.0013 67.2525 62.2125 66.0295 61.8057 64.6706C61.2319 62.7538 61.3387 60.5451 62.3023 58.7744C62.9832 57.5234 63.953 56.6611 65.3203 56.2673Z" fill="white"/>
<path d="M70.3024 83.6726C69.851 83.9495 69.4971 84.0925 68.9663 84.1476C66.8572 84.3654 57.6645 83.4018 56.1782 82.0766C55.8648 81.7969 55.7499 81.552 55.7424 81.1274C55.7321 80.5464 56.0957 79.9019 56.5402 79.5483C56.8611 79.2935 57.2617 79.1125 57.6748 79.0929C59.0022 79.0302 60.6747 79.5492 62.0009 79.7608C63.6666 80.0265 65.3488 80.1919 67.0192 80.4302C68.0183 80.4903 69.5429 80.4343 70.27 81.2467C70.6217 81.6399 70.7111 82.0302 70.675 82.542C70.6472 82.9383 70.4946 83.3286 70.3024 83.6726Z" fill="white"/>
<path d="M67.2953 86.5158C67.7585 86.4869 68.1713 86.4591 68.585 86.7202C68.9928 86.9775 69.5055 87.7252 69.5731 88.2046C69.6277 88.5915 69.4747 88.8921 69.2464 89.1896C68.1978 90.5538 62.5284 91.3426 60.7359 91.5578C60.31 91.5672 59.757 91.5553 59.3733 91.3575C58.9194 91.1239 58.4159 90.489 58.3396 89.9744C58.2823 89.5878 58.3499 89.2575 58.5789 88.937C59.6234 87.4734 65.4816 86.8529 67.2953 86.5158Z" fill="white"/>
<path d="M173.405 55.4771C173.866 55.4394 174.248 55.4749 174.698 55.5899C175.865 55.8868 176.763 56.5899 177.331 57.6512C178.166 59.212 178.354 61.2873 177.833 62.9748C177.253 64.8536 176.215 66.0505 174.515 66.9533C173.831 67.0676 173.204 67.0539 172.565 66.7639C171.361 66.2178 170.561 65.2172 170.099 63.9954C169.421 62.2013 169.509 59.9512 170.314 58.2116C170.987 56.7568 171.913 55.9886 173.405 55.4771Z" fill="white"/>
</svg>
