<svg width="267" height="333" viewBox="0 0 267 333" fill="none" xmlns="http://www.w3.org/2000/svg">
<path d="M119.805 0.519043C122.571 0.724043 125.661 1.24302 128.195 2.38702C132.912 4.51502 136.732 8.41503 138.446 13.332C140.026 17.781 139.782 22.674 137.766 26.943C134.793 33.107 130.031 35.424 123.85 37.606L123.926 48.256L162.515 48.096C170.429 48.073 179.32 47.306 187.079 48.919C191.781 49.897 196.405 52.017 199.803 55.475C208.342 64.167 205.96 82.794 205.92 93.985C209.526 94.103 212.501 94.217 215.664 96.207C220.309 99.129 223.072 104.274 224.109 109.542C225.55 116.859 224.806 125.861 220.443 132.118C216.592 137.639 212.404 138.929 205.988 140.028C205.959 147.421 207.643 159.508 203.963 165.893C202.353 166.934 202.427 166.901 200.53 166.602C198.436 165.067 197.826 163.656 197.299 161.125C196.114 155.439 197.063 148.225 197.106 142.396L197.222 97.75C197.236 89.721 197.838 81.219 196.923 73.261C196.509 69.658 195.597 65.678 193.677 62.56C191.868 59.623 189.066 58.763 185.862 57.993C174.347 55.226 160.335 56.719 148.405 56.718L87.0301 56.842C77.3351 56.895 67.1981 55.951 57.5771 56.618C54.5571 56.828 51.4341 57.45 48.8761 59.153C45.7481 61.235 44.0101 64.705 43.3941 68.338C41.1821 81.389 42.8221 103.245 42.8771 117.116C42.9201 128.185 41.9011 139.9 43.0561 150.885C43.5191 155.295 44.4361 160.635 47.1671 164.268C50.2281 168.34 55.2221 170.635 60.0921 171.653C69.7771 173.677 80.8091 171.931 90.6571 171.648C100.059 171.378 109.478 171.474 118.884 171.387C124.188 171.338 130.032 170.843 135.249 171.852C137.74 172.335 139.883 172.921 141.384 175.112L140.761 176.65C130.975 184.692 92.7651 176.771 77.4231 182.178C69.9201 184.823 65.4921 189.969 62.2031 197.033C55.5371 211.349 49.3521 251.712 54.8511 266.186C56.2051 269.748 58.7571 271.4 62.2731 272.498C78.0141 277.411 133.196 270.001 143.774 274.716C144.519 275.707 145.336 276.385 145.201 277.733C144.987 279.868 142.88 281.907 142.408 284.14C141.348 289.159 142.752 296.857 143.11 302.115C151.017 302.691 159.113 302.403 167.046 302.439C166.94 296.477 165.894 288.363 168.27 282.767C169.069 280.885 169.447 280.111 171.287 279.291L172.793 280.24C176.588 286.849 175.626 294.76 175.576 302.119C179.159 302.447 183.044 302.865 186.231 304.65C190.67 307.136 192.086 311.141 193.421 315.713C193.955 319.851 194.589 325.036 191.764 328.55C189.971 330.781 187.659 331.086 184.977 331.462C175.656 332.767 147.92 333.201 138.87 331.635C135.937 331.127 132.857 329.959 130.532 328.066C128.001 326.006 126.43 323.086 126.35 319.802C126.208 313.966 130.389 308.02 134.133 303.957L134.105 282.184L109.049 282.234C109.618 289.416 108.862 297.029 108.611 304.242C110.276 305.848 111.703 307.415 112.762 309.502C114.743 313.408 116.45 318.771 114.839 323.043C113.645 326.208 111.158 328.557 108.147 330.005C100.284 333.787 62.6191 333.103 54.1871 330.287C52.3981 328.705 51.2871 327.269 50.6731 324.918C49.5791 320.736 50.4331 314.068 52.7331 310.379C55.7321 305.572 60.7511 303.564 65.9911 302.286L65.9741 282.494C64.4241 282.181 62.8871 281.808 61.3651 281.376C55.5611 279.771 50.8461 277.346 47.8571 271.885C39.3531 256.347 47.0141 214.101 51.9071 197.124C48.3531 199.151 45.1041 201.466 42.1931 204.358C27.6871 218.766 23.0741 239.488 23.0351 259.241C26.4071 260.045 30.2611 260.718 33.2941 262.445C37.9191 265.079 41.0641 269.065 42.2781 274.26C43.3511 278.848 43.4671 287.704 40.6341 291.638C39.3641 293.401 38.1811 293.669 36.1871 293.903C32.0041 289.953 35.0171 279.492 32.2401 273.786C30.9881 271.157 28.7281 269.145 25.9721 268.206C22.8071 267.159 17.0551 267.553 14.2011 269.29C6.68307 273.866 11.3601 285.695 9.35009 292.485C8.88609 294.054 8.71707 294.222 7.32107 295.014C4.96007 294.225 3.13708 292.824 2.05208 290.517C-0.191916 285.744 0.24808 277.702 1.83608 272.779C3.91608 266.334 8.32806 262.832 14.1741 259.911C14.7571 235.16 20.9641 206.931 42.7961 192.054C48.8831 187.906 56.1261 187.254 61.4501 181.863L62.1311 181.165C54.7811 179.995 48.7781 178.686 43.2931 173.286C34.3861 164.518 34.2891 151.884 34.1091 140.249C31.1961 139.506 27.6481 138.581 25.1891 136.8C20.4141 133.342 17.8801 127.445 17.0751 121.771C16.0571 114.59 16.6391 106.445 21.2101 100.514C24.8741 95.762 28.7221 94.609 34.3911 93.814L34.1651 79.298C34.0841 71.205 33.8281 60.844 40.0271 54.701C43.1531 51.603 47.2351 49.712 51.5111 48.826C59.6111 47.148 68.9891 48.035 77.2391 48.07L115.776 48.12L115.828 37.56C113.593 36.645 111.219 35.759 109.219 34.386C105.417 31.777 102.577 27.286 101.681 22.778C100.669 17.851 101.721 12.725 104.59 8.59402C108.369 3.23902 113.613 1.50704 119.805 0.519043ZM31.1311 102.534C26.9891 106.575 25.6881 110.646 25.6071 116.42C25.5261 122.199 27.0461 127.298 31.0291 131.515L33.4051 130.569C35.3991 124.602 35.7311 109.207 33.4421 103.375L31.1311 102.534ZM118.923 9.29602C115.269 9.84902 112.21 12.355 110.947 15.828C109.684 19.302 110.42 23.188 112.865 25.959C115.31 28.73 119.073 29.944 122.676 29.122C127.97 27.916 131.361 22.736 130.351 17.4C129.341 12.064 124.291 8.48302 118.923 9.29602ZM74.1561 282.207L74.1791 302.332C82.7131 302.374 91.5731 301.902 100.064 302.538C100.391 295.789 100.565 289.034 100.585 282.277C91.7751 282.202 82.9651 282.179 74.1561 282.207ZM182.236 323.759C183.76 322.589 184.724 321.973 185.073 319.923C185.417 317.902 184.522 315.606 183.268 314.054C180.814 311.017 176.132 310.993 172.539 310.801C161.877 310.23 150.597 310.512 139.917 311.066C137.888 313.103 135.779 315.236 135.816 318.326C135.833 319.681 136.511 320.268 137.267 321.344C145.944 326.291 171.54 323.686 182.236 323.759ZM212.422 128.336C215.197 123.519 217.038 116.614 215.512 111.091C214.732 108.272 213.253 105.299 210.56 103.871C209.151 103.124 207.528 102.756 205.977 102.438C205.904 108.915 204.366 126.692 206.752 131.759C209.009 131.082 210.584 129.747 212.422 128.336ZM63.5851 311.084C61.6751 313.075 59.0641 316.024 59.1691 318.977C59.2101 320.123 59.7751 320.733 60.3491 321.682C67.2801 326.036 93.9731 323.756 102.919 323.63C105.098 322.007 105.932 319.992 107.053 317.613C106.954 315.757 106.795 315.025 105.377 313.72C100.117 308.874 71.1561 310.454 63.5851 311.084Z" fill="white"/>
<path d="M158.129 171.54C164.17 171.381 170.435 170.974 176.456 171.416C180.017 171.677 184.743 172.33 187.051 175.391C190.111 179.449 186.592 186.754 186.274 191.397C186.117 193.694 186.699 195.77 188.362 197.421C190.751 199.794 195.93 201.389 199.261 201.233C200.986 201.152 202.6 200.533 203.754 199.217C208.523 193.783 205.273 184.196 204.688 178C204.534 176.368 204.161 175.057 205.429 173.781C207.944 171.249 212.059 170.665 215.48 170.631C222.868 170.557 231.216 172.027 236.601 177.514C243.133 184.169 241.044 196.459 240.868 205.151C242.745 204.52 244.758 203.939 246.745 203.857C251.85 203.646 257.246 205.067 260.993 208.668C264.405 211.948 266.042 216.456 266.136 221.126C266.236 226.084 264.46 231.084 260.903 234.596C255.155 240.27 248.614 240.401 241.05 240.349C241.964 247.583 242.27 253.812 240.026 260.851C236.919 265.768 234.446 267.151 229.192 269.474C226.005 276.831 221.743 282.672 214.116 285.858C207.628 288.568 199.783 288.564 193.335 285.723C185.87 282.434 182.324 276.597 179.472 269.29C175.295 270.091 171.118 270.635 166.852 270.375C161.894 270.073 157.018 268.473 153.795 264.477C148.323 257.694 149.494 247.846 150.207 239.776C148.084 240.272 145.782 240.564 143.603 240.607C138.969 240.7 133.985 238.42 130.708 235.18C127.057 231.511 125.052 226.517 125.152 221.341C125.217 216.639 126.993 212 130.471 208.759C136.16 203.459 142.792 204.08 149.952 204.482C149.935 196.279 147.761 186.104 150.722 178.336C152.167 174.545 154.658 173.101 158.129 171.54ZM178.323 261.513C177.722 253.717 179.256 246.045 184.474 239.947C187.785 236.077 192.313 233.788 197.411 233.542C202.068 233.316 204.968 237.1 208.466 237.035C214.665 236.918 217.51 232.835 223.878 238.35C228.196 242.089 230.028 248.988 230.186 254.501C230.226 256.073 230.236 257.646 230.216 259.218C231.474 258.625 231.444 258.65 231.928 257.305C234.327 250.64 229.504 233.023 235.723 230.067C241.585 227.28 252.413 235.927 256.276 227.591C257.71 224.495 257.286 218.549 255.855 215.512C255.216 214.157 254.121 213.238 252.692 212.787C246.423 210.808 239.287 217.77 233.742 213.4C229.379 204.255 237.503 184.116 226.067 180.514C222.505 179.392 217.856 179.959 214.157 180.152C215.522 187.588 216.496 195.08 212.041 201.726C209.309 205.793 205.048 208.582 200.228 209.457C195.321 210.389 190.211 209.46 186.076 206.616C181.757 203.645 179.159 198.984 178.264 193.882C177.459 189.288 178.397 184.815 179.228 180.291C174.941 180.105 170.552 179.711 166.268 179.943C163.998 180.075 160.929 179.869 158.923 180.971C156.965 189.448 161.069 207.365 156.766 214.014C150.435 217.631 138.435 206.592 135.03 217.58C134.059 220.715 133.946 224.741 135.475 227.689C136.597 229.853 138.536 231.651 140.929 232.275C146.704 233.783 153.775 225.571 157.507 231.725C162.886 240.596 151.28 257.334 164.501 261.114C169.108 262.431 173.627 261.916 178.323 261.513ZM214.38 276.014C219.78 270.996 221.932 265.06 222.215 257.702C222.342 254.407 222.165 249.018 219.674 246.563C218.272 245.181 216.676 244.575 214.706 244.724C212.349 244.901 209.649 247.448 207.84 248.878C204.115 245.327 201.414 241.831 195.864 241.819C191.085 244.867 188.415 248.188 187.184 253.8C185.888 259.704 186.958 266.717 190.314 271.788C192.639 275.302 196.181 277.827 200.335 278.651C205.059 279.589 210.194 278.196 214.38 276.014Z" fill="white"/>
<path d="M91.2226 135.019C96.0836 135.282 101.908 138.632 106.702 140.174C124.323 145.844 132.61 139.488 148.927 136.206C150.79 137.157 150.813 137.243 151.658 139.165C151.642 141.586 151.221 142.713 149.784 144.655C135.219 151.957 115.205 152.222 99.8077 147.732C96.2047 146.681 92.1527 145.025 90.4397 141.418C89.2567 138.929 90.2866 137.31 91.2226 135.019Z" fill="white"/>
<path d="M155.281 97.639C158.849 96.193 162.919 96.778 165.937 99.169C168.955 101.56 170.455 105.389 169.864 109.195C169.274 113 166.685 116.194 163.084 117.558C157.605 119.635 151.475 116.914 149.338 111.457C147.2 106 149.85 99.839 155.281 97.639Z" fill="white"/>
<path d="M78.0653 97.6979C83.5303 95.5369 89.7113 98.2229 91.8613 103.694C94.0103 109.165 91.3123 115.342 85.8393 117.481C80.3803 119.614 74.2263 116.925 72.0833 111.47C69.9393 106.014 72.6153 99.8529 78.0653 97.6979Z" fill="white"/>
</svg>
