<svg width="285" height="304" viewBox="0 0 285 304" fill="none" xmlns="http://www.w3.org/2000/svg">
<mask id="path-1-outside-1_29_16" maskUnits="userSpaceOnUse" x="-1" y="0" width="286" height="304" fill="black">
<rect fill="white" x="-1" width="286" height="304"/>
<path d="M35.8601 1.72519C42.7856 0.548475 53.5967 1.15576 60.8518 1.16341L105.211 1.16086L195.949 1.15873L225.668 1.16086C231.39 1.16129 237.141 1.04562 242.859 1.22338C245.912 1.31821 249.752 1.64609 252.595 2.77773C257.744 3.41435 266.117 9.15418 269.768 12.7664C279.164 22.0628 283.202 32.9806 283.218 46.0274L283.217 162.05L283.229 193.72C283.232 200.097 283.768 206.997 282.609 213.26C281.064 221.635 276.988 229.335 270.93 235.322C265.506 240.754 258.724 244.631 251.291 246.55C245.077 248.091 234.249 247.409 227.541 247.407L194.237 247.428L198.209 264.464L213.315 264.427C217.929 264.421 222.889 264.003 227.391 265.106C230.87 265.98 234.084 267.688 236.756 270.083C240.803 273.762 242.987 278.444 243.217 283.908C243.354 287.163 243.708 293.752 242.919 296.717C242.586 298.007 241.925 299.189 241.001 300.149C238.114 303.175 233.793 302.635 229.973 302.642L107.409 302.636L67.4651 302.639L55.0592 302.652C52.9133 302.655 50.6743 302.781 48.5369 302.601C46.5534 302.434 44.6988 301.662 43.3095 300.214C40.1 296.868 40.8991 288.766 40.9782 284.281C41.0734 278.847 43.107 274.086 47.054 270.318C49.6498 267.84 53.0872 265.91 56.5859 265.071C60.9504 264.024 65.9784 264.429 70.4556 264.43C75.5911 264.398 80.7271 264.425 85.8617 264.512C87.1022 258.801 88.3717 253.002 89.9707 247.383L55.9761 247.419C48.6572 247.421 39.5531 248.089 32.5183 246.544C27.4555 245.433 22.5692 242.899 18.3709 239.912C9.51943 233.64 3.50573 224.124 1.6405 213.437C0.843553 208.708 1.03918 203.886 1.04385 199.109L1.05193 182.792L1.05278 122.969L1.03875 66.3786L1.03152 49.376C1.03067 45.6711 0.863545 41.8704 1.30752 38.1897C2.15848 31.1801 4.78494 24.5034 8.93852 18.7924C15.3439 9.93242 24.9987 3.46836 35.8601 1.72519ZM47.2207 296.142C47.2717 296.151 47.3257 296.148 47.3729 296.168C47.6149 296.269 47.8913 296.436 48.1278 296.563C48.8073 296.925 49.3279 296.97 50.0844 296.993C57.7801 297.227 65.5501 296.978 73.2534 296.982L121.935 296.988L194.185 296.986L235.356 296.933C235.723 296.671 236.1 296.407 236.433 296.102C237.308 295.305 237.561 293.861 237.577 292.734C237.666 286.421 238.173 279.558 233.368 274.718C231.085 272.419 227.69 270.751 224.481 270.302C220.176 269.699 213.365 270.115 208.799 270.116L176.212 270.127L64.3938 270.118C59.2553 270.138 54.4494 270.971 50.7121 274.803C45.6978 279.942 46.6657 287.097 46.7422 293.683C46.8736 294.486 46.9468 295.376 47.2207 296.142ZM91.8287 264.486C103.197 264.187 114.633 264.437 126.008 264.44L189.063 264.437L192.538 264.47C191.234 260.961 188.973 251.299 188.49 247.415L126.431 247.412L106.07 247.42C102.669 247.419 99.1543 247.604 95.7658 247.366C94.4989 253.053 93.3983 258.881 91.8287 264.486ZM244.134 241.786C253.309 241.427 261.994 236.685 268.135 230.015C272.982 224.702 276.128 218.062 277.169 210.947C278.016 205.461 277.518 196.555 277.518 190.697L277.515 150.858L277.512 79.311L277.52 56.0718C277.523 51.6163 277.656 47.1144 277.457 42.6661C276.925 32.3627 272.296 22.6998 264.599 15.8292C259.64 11.3541 253.25 8.21902 246.623 7.25579C242.893 6.714 239.067 6.85306 235.307 6.85221L220.83 6.85349L170.907 6.85731L84.4175 6.85604L56.591 6.85349C51.2615 6.85094 45.8811 6.67786 40.5593 6.93429C40.2386 6.9496 40.3262 6.94747 39.9482 7.00148C29.6695 7.99491 21.1896 12.8259 14.6724 20.7857C10.2471 26.1913 7.70865 32.8569 6.83004 39.756C6.37373 43.341 6.52683 47.0472 6.52555 50.6577L6.52853 66.0324L6.53576 117.766L6.53959 178.654L6.53619 196.912C6.53278 201.043 6.38053 205.231 6.80155 209.344C7.79455 219.036 12.2535 227.676 19.8347 233.857C24.5828 237.727 30.642 240.745 36.754 241.563C40.5886 242.077 44.5717 241.889 48.4339 241.889L66.2475 241.883L124.966 241.882L205.445 241.872L230.849 241.875C235.147 241.878 239.651 242.142 243.929 241.81C243.998 241.805 244.066 241.794 244.134 241.786Z"/>
</mask>
<path d="M35.8601 1.72519C42.7856 0.548475 53.5967 1.15576 60.8518 1.16341L105.211 1.16086L195.949 1.15873L225.668 1.16086C231.39 1.16129 237.141 1.04562 242.859 1.22338C245.912 1.31821 249.752 1.64609 252.595 2.77773C257.744 3.41435 266.117 9.15418 269.768 12.7664C279.164 22.0628 283.202 32.9806 283.218 46.0274L283.217 162.05L283.229 193.72C283.232 200.097 283.768 206.997 282.609 213.26C281.064 221.635 276.988 229.335 270.93 235.322C265.506 240.754 258.724 244.631 251.291 246.55C245.077 248.091 234.249 247.409 227.541 247.407L194.237 247.428L198.209 264.464L213.315 264.427C217.929 264.421 222.889 264.003 227.391 265.106C230.87 265.98 234.084 267.688 236.756 270.083C240.803 273.762 242.987 278.444 243.217 283.908C243.354 287.163 243.708 293.752 242.919 296.717C242.586 298.007 241.925 299.189 241.001 300.149C238.114 303.175 233.793 302.635 229.973 302.642L107.409 302.636L67.4651 302.639L55.0592 302.652C52.9133 302.655 50.6743 302.781 48.5369 302.601C46.5534 302.434 44.6988 301.662 43.3095 300.214C40.1 296.868 40.8991 288.766 40.9782 284.281C41.0734 278.847 43.107 274.086 47.054 270.318C49.6498 267.84 53.0872 265.91 56.5859 265.071C60.9504 264.024 65.9784 264.429 70.4556 264.43C75.5911 264.398 80.7271 264.425 85.8617 264.512C87.1022 258.801 88.3717 253.002 89.9707 247.383L55.9761 247.419C48.6572 247.421 39.5531 248.089 32.5183 246.544C27.4555 245.433 22.5692 242.899 18.3709 239.912C9.51943 233.64 3.50573 224.124 1.6405 213.437C0.843553 208.708 1.03918 203.886 1.04385 199.109L1.05193 182.792L1.05278 122.969L1.03875 66.3786L1.03152 49.376C1.03067 45.6711 0.863545 41.8704 1.30752 38.1897C2.15848 31.1801 4.78494 24.5034 8.93852 18.7924C15.3439 9.93242 24.9987 3.46836 35.8601 1.72519ZM47.2207 296.142C47.2717 296.151 47.3257 296.148 47.3729 296.168C47.6149 296.269 47.8913 296.436 48.1278 296.563C48.8073 296.925 49.3279 296.97 50.0844 296.993C57.7801 297.227 65.5501 296.978 73.2534 296.982L121.935 296.988L194.185 296.986L235.356 296.933C235.723 296.671 236.1 296.407 236.433 296.102C237.308 295.305 237.561 293.861 237.577 292.734C237.666 286.421 238.173 279.558 233.368 274.718C231.085 272.419 227.69 270.751 224.481 270.302C220.176 269.699 213.365 270.115 208.799 270.116L176.212 270.127L64.3938 270.118C59.2553 270.138 54.4494 270.971 50.7121 274.803C45.6978 279.942 46.6657 287.097 46.7422 293.683C46.8736 294.486 46.9468 295.376 47.2207 296.142ZM91.8287 264.486C103.197 264.187 114.633 264.437 126.008 264.44L189.063 264.437L192.538 264.47C191.234 260.961 188.973 251.299 188.49 247.415L126.431 247.412L106.07 247.42C102.669 247.419 99.1543 247.604 95.7658 247.366C94.4989 253.053 93.3983 258.881 91.8287 264.486ZM244.134 241.786C253.309 241.427 261.994 236.685 268.135 230.015C272.982 224.702 276.128 218.062 277.169 210.947C278.016 205.461 277.518 196.555 277.518 190.697L277.515 150.858L277.512 79.311L277.52 56.0718C277.523 51.6163 277.656 47.1144 277.457 42.6661C276.925 32.3627 272.296 22.6998 264.599 15.8292C259.64 11.3541 253.25 8.21902 246.623 7.25579C242.893 6.714 239.067 6.85306 235.307 6.85221L220.83 6.85349L170.907 6.85731L84.4175 6.85604L56.591 6.85349C51.2615 6.85094 45.8811 6.67786 40.5593 6.93429C40.2386 6.9496 40.3262 6.94747 39.9482 7.00148C29.6695 7.99491 21.1896 12.8259 14.6724 20.7857C10.2471 26.1913 7.70865 32.8569 6.83004 39.756C6.37373 43.341 6.52683 47.0472 6.52555 50.6577L6.52853 66.0324L6.53576 117.766L6.53959 178.654L6.53619 196.912C6.53278 201.043 6.38053 205.231 6.80155 209.344C7.79455 219.036 12.2535 227.676 19.8347 233.857C24.5828 237.727 30.642 240.745 36.754 241.563C40.5886 242.077 44.5717 241.889 48.4339 241.889L66.2475 241.883L124.966 241.882L205.445 241.872L230.849 241.875C235.147 241.878 239.651 242.142 243.929 241.81C243.998 241.805 244.066 241.794 244.134 241.786Z" fill="white"/>
<path d="M35.8601 1.72519C42.7856 0.548475 53.5967 1.15576 60.8518 1.16341L105.211 1.16086L195.949 1.15873L225.668 1.16086C231.39 1.16129 237.141 1.04562 242.859 1.22338C245.912 1.31821 249.752 1.64609 252.595 2.77773C257.744 3.41435 266.117 9.15418 269.768 12.7664C279.164 22.0628 283.202 32.9806 283.218 46.0274L283.217 162.05L283.229 193.72C283.232 200.097 283.768 206.997 282.609 213.26C281.064 221.635 276.988 229.335 270.93 235.322C265.506 240.754 258.724 244.631 251.291 246.55C245.077 248.091 234.249 247.409 227.541 247.407L194.237 247.428L198.209 264.464L213.315 264.427C217.929 264.421 222.889 264.003 227.391 265.106C230.87 265.98 234.084 267.688 236.756 270.083C240.803 273.762 242.987 278.444 243.217 283.908C243.354 287.163 243.708 293.752 242.919 296.717C242.586 298.007 241.925 299.189 241.001 300.149C238.114 303.175 233.793 302.635 229.973 302.642L107.409 302.636L67.4651 302.639L55.0592 302.652C52.9133 302.655 50.6743 302.781 48.5369 302.601C46.5534 302.434 44.6988 301.662 43.3095 300.214C40.1 296.868 40.8991 288.766 40.9782 284.281C41.0734 278.847 43.107 274.086 47.054 270.318C49.6498 267.84 53.0872 265.91 56.5859 265.071C60.9504 264.024 65.9784 264.429 70.4556 264.43C75.5911 264.398 80.7271 264.425 85.8617 264.512C87.1022 258.801 88.3717 253.002 89.9707 247.383L55.9761 247.419C48.6572 247.421 39.5531 248.089 32.5183 246.544C27.4555 245.433 22.5692 242.899 18.3709 239.912C9.51943 233.64 3.50573 224.124 1.6405 213.437C0.843553 208.708 1.03918 203.886 1.04385 199.109L1.05193 182.792L1.05278 122.969L1.03875 66.3786L1.03152 49.376C1.03067 45.6711 0.863545 41.8704 1.30752 38.1897C2.15848 31.1801 4.78494 24.5034 8.93852 18.7924C15.3439 9.93242 24.9987 3.46836 35.8601 1.72519ZM47.2207 296.142C47.2717 296.151 47.3257 296.148 47.3729 296.168C47.6149 296.269 47.8913 296.436 48.1278 296.563C48.8073 296.925 49.3279 296.97 50.0844 296.993C57.7801 297.227 65.5501 296.978 73.2534 296.982L121.935 296.988L194.185 296.986L235.356 296.933C235.723 296.671 236.1 296.407 236.433 296.102C237.308 295.305 237.561 293.861 237.577 292.734C237.666 286.421 238.173 279.558 233.368 274.718C231.085 272.419 227.69 270.751 224.481 270.302C220.176 269.699 213.365 270.115 208.799 270.116L176.212 270.127L64.3938 270.118C59.2553 270.138 54.4494 270.971 50.7121 274.803C45.6978 279.942 46.6657 287.097 46.7422 293.683C46.8736 294.486 46.9468 295.376 47.2207 296.142ZM91.8287 264.486C103.197 264.187 114.633 264.437 126.008 264.44L189.063 264.437L192.538 264.47C191.234 260.961 188.973 251.299 188.49 247.415L126.431 247.412L106.07 247.42C102.669 247.419 99.1543 247.604 95.7658 247.366C94.4989 253.053 93.3983 258.881 91.8287 264.486ZM244.134 241.786C253.309 241.427 261.994 236.685 268.135 230.015C272.982 224.702 276.128 218.062 277.169 210.947C278.016 205.461 277.518 196.555 277.518 190.697L277.515 150.858L277.512 79.311L277.52 56.0718C277.523 51.6163 277.656 47.1144 277.457 42.6661C276.925 32.3627 272.296 22.6998 264.599 15.8292C259.64 11.3541 253.25 8.21902 246.623 7.25579C242.893 6.714 239.067 6.85306 235.307 6.85221L220.83 6.85349L170.907 6.85731L84.4175 6.85604L56.591 6.85349C51.2615 6.85094 45.8811 6.67786 40.5593 6.93429C40.2386 6.9496 40.3262 6.94747 39.9482 7.00148C29.6695 7.99491 21.1896 12.8259 14.6724 20.7857C10.2471 26.1913 7.70865 32.8569 6.83004 39.756C6.37373 43.341 6.52683 47.0472 6.52555 50.6577L6.52853 66.0324L6.53576 117.766L6.53959 178.654L6.53619 196.912C6.53278 201.043 6.38053 205.231 6.80155 209.344C7.79455 219.036 12.2535 227.676 19.8347 233.857C24.5828 237.727 30.642 240.745 36.754 241.563C40.5886 242.077 44.5717 241.889 48.4339 241.889L66.2475 241.883L124.966 241.882L205.445 241.872L230.849 241.875C235.147 241.878 239.651 242.142 243.929 241.81C243.998 241.805 244.066 241.794 244.134 241.786Z" stroke="white" stroke-width="2" mask="url(#path-1-outside-1_29_16)"/>
<mask id="path-2-outside-2_29_16" maskUnits="userSpaceOnUse" x="28.0801" y="24.5334" width="229" height="179" fill="black">
<rect fill="white" x="28.0801" y="24.5334" width="229" height="179"/>
<path d="M47.6393 25.7115C48.4111 25.6813 49.1839 25.6583 49.9561 25.6435C64.1699 25.4011 78.4269 25.635 92.6449 25.6341H177.544L217.974 25.629L230.104 25.6273C232.481 25.6282 235.013 25.4963 237.369 25.8046C241.967 26.4068 246.181 28.6216 249.481 31.8524C254.247 36.5197 255.735 42.1753 255.768 48.6908L255.772 134.906L255.782 159.422C255.783 163.862 256.166 168.752 255.46 173.138C254.73 177.671 252.661 181.518 249.413 184.748C243.153 190.975 235.815 190.671 227.616 190.652L214.395 190.636C210.706 190.649 206.982 190.758 203.315 190.298C200.059 195.235 195.157 199.587 189.401 201.306C184.549 202.754 179.434 202.43 174.963 200.011C171.233 197.992 167.956 194.689 166.716 190.555C159.306 190.865 151.786 190.645 144.365 190.64C135.62 190.635 126.831 190.807 118.092 190.546C116.577 193.886 114.45 196.735 111.419 198.849C107.205 201.748 102.001 202.827 96.9822 201.842C90.2332 200.583 85.0692 196.064 81.2618 190.579C74.0084 190.686 66.7449 190.643 59.4906 190.65C55.1151 190.654 50.3576 191.047 46.042 190.313C43.1234 189.817 39.9883 188.619 37.5855 186.872C33.1662 183.716 30.225 178.894 29.4417 173.52C28.9892 170.426 29.1176 167.254 29.1236 164.134L29.1329 152.299L29.1282 110.5L29.118 65.0543L29.1146 50.9975C29.1163 48.3187 28.9701 45.5264 29.2669 42.8664C29.6292 39.6161 31.1746 36.4857 33.1326 33.9073C36.7635 29.1251 41.7506 26.4983 47.6393 25.7115ZM78.2173 184.777C74.469 175.228 74.6391 164.585 78.6915 155.161C83.258 144.4 92.7125 135.531 102.919 130.106C94.8733 122.376 91.4741 112.311 91.2275 101.304C91.1173 96.3756 91.734 90.9722 93.6124 86.3801C88.4084 81.5504 84.9335 76.1886 84.6635 68.9093C84.4526 63.2167 86.2714 58.0004 90.1767 53.8174C93.8378 49.8182 98.9691 47.4818 104.39 47.3466C110.077 47.2062 115.425 49.6889 119.464 53.6069C120.967 55.0647 122.357 56.6995 123.61 58.3759C126.922 57.6857 130.128 56.6663 133.473 56.1032C141.159 54.81 152.636 55.382 159.884 58.418C164.524 52.7998 169.553 48.2069 177.14 47.4644C182.491 46.8902 187.843 48.5424 191.94 52.033C196.804 56.1096 199.026 60.9794 199.53 67.2329C199.557 67.5621 199.554 67.8789 199.529 68.2076C199.077 75.4461 196.86 80.6424 191.373 85.4935C191.138 85.701 190.902 85.9073 190.664 86.1118C194.659 95.5277 193.665 107.735 189.93 117.04C187.868 122.176 184.889 126.336 180.867 130.108C192.626 136.237 203.027 146.704 207.045 159.557C209.786 168.325 209.124 176.293 206.222 184.877C212.683 184.738 219.165 184.844 225.629 184.853C229.775 184.859 234.446 185.281 238.479 184.279C241.375 183.543 244.01 182.021 246.096 179.882C248.163 177.731 249.528 174.775 249.925 171.824C250.643 166.499 250.226 160.788 250.21 155.41L250.216 128.684L250.213 75.7298C250.215 66.8515 250.433 57.9149 250.21 49.0455C250.079 43.8377 248.876 39.1865 244.988 35.4927C242.824 33.4365 239.413 31.6772 236.428 31.2804C233.126 30.8419 229.627 30.9797 226.302 30.9738L211.039 30.9687L160.845 30.967L87.8049 30.9576L64.1465 30.9474C60.049 30.947 55.8401 30.7641 51.7537 31.004C51.6143 31.012 51.4752 31.0261 51.3357 31.0371C46.5817 31.1779 42.1954 32.5183 38.8311 36.0493C36.5351 38.4593 35.4435 41.4575 35.0501 44.7146C34.4292 49.8539 34.8732 55.9459 34.8864 61.1724L34.8949 91.3035L34.8932 144.644C34.8987 153.02 34.6053 161.504 34.9038 169.869C35.0548 174.101 36.0682 177.729 39.2649 180.7C41.0647 182.373 43.222 183.703 45.6227 184.297C50.0931 185.402 58.0932 184.847 62.8741 184.841C67.8769 184.834 72.9895 185.04 77.9817 184.793C78.0604 184.789 78.1386 184.782 78.2173 184.777ZM102.885 53.3084C98.5498 54.3078 94.9928 56.258 92.5892 60.1335C90.3889 63.6815 89.8569 68.1728 90.8226 72.2051C91.4418 74.7912 92.7019 77.3339 94.4374 79.3535C95.3849 80.4562 100.01 83.7924 100.156 84.4767C100.519 86.1714 98.7692 89.0372 98.2763 90.6902C95.8089 98.9655 96.5463 108.471 100.011 116.338C101.482 119.679 103.781 123.585 106.595 125.967C107.86 127.036 109.576 128.002 110.533 129.353C111.007 130.022 111.392 130.977 110.996 131.772C110.355 133.06 102.763 136.753 100.994 137.903C87.7586 146.513 78.6685 161.527 82.0579 177.629C83.3826 183.921 86.6865 190.192 92.2247 193.728C95.6031 195.884 99.4343 197.155 103.454 196.256C106.746 195.509 109.624 193.527 111.495 190.719C112.944 188.499 113.457 185.426 112.89 182.854C111.362 175.921 103.391 174.878 103.533 166.511C103.572 164.176 104.328 161.903 105.553 159.926C106.456 158.466 107.732 157.009 109.494 156.659C110.356 156.488 111.436 156.565 112.149 157.132C112.672 157.547 112.9 158.213 112.895 158.863C112.865 163.07 105.937 164.974 111.182 170.619C112.271 171.791 113.503 172.829 114.586 174.007C117.417 177.09 118.457 180.855 119.104 184.876C134.586 184.628 150.14 184.688 165.624 184.829C165.932 182.09 166.285 179.669 167.628 177.227C170.225 172.504 176.349 169.911 174.713 164.489C173.503 162.614 171.562 161.032 172.037 158.577C172.169 157.891 172.507 157.276 173.107 156.893C173.721 156.501 174.504 156.454 175.2 156.62C177.012 157.053 178.279 158.729 179.145 160.274C180.647 162.955 181.636 166.455 180.711 169.467C178.87 175.465 172.21 177.009 171.574 184.073C171.384 186.179 171.823 188.216 172.771 190.097C174.218 192.965 176.739 195.03 179.812 195.961C183.647 197.122 187.585 196.288 191.008 194.356C196.337 191.347 200.216 185.669 201.813 179.823C204.269 170.832 202.96 161.854 198.285 153.786C194.158 146.663 187.704 140.578 180.617 136.406C178.557 135.194 176.224 134.342 174.238 133.035C173.223 132.366 172.685 131.347 173.037 130.133C173.541 128.39 176.688 126.64 177.971 125.27C185.312 117.428 188.868 105.505 187.15 94.8693C186.683 91.9796 185.636 89.2541 184.701 86.4967C184.508 85.9264 184.073 84.7403 184.348 84.179C184.874 83.1069 187.685 81.2212 188.683 80.2461C193.532 75.5112 195.434 67.8117 192.411 61.562C190.704 58.0029 187.641 55.2778 183.907 53.996C180.119 52.6781 175.957 53.1387 172.386 54.8865C170.398 55.8532 168.609 57.1843 167.111 58.8105C165.802 60.2049 164.028 63.6764 162.389 64.3866C161.986 64.561 161.603 64.6252 161.17 64.569C159.925 64.407 158.65 63.8163 157.432 63.488C154.77 62.7702 151.814 61.9621 149.085 61.6326C142.616 60.91 136.071 61.2792 129.724 62.7247C127.194 63.3196 124.617 64.4176 122.04 64.6762C120.274 63.7058 119.222 62.0723 117.981 60.535C113.97 55.5627 109.454 52.7836 102.885 53.3084Z"/>
</mask>
<path d="M47.6393 25.7115C48.4111 25.6813 49.1839 25.6583 49.9561 25.6435C64.1699 25.4011 78.4269 25.635 92.6449 25.6341H177.544L217.974 25.629L230.104 25.6273C232.481 25.6282 235.013 25.4963 237.369 25.8046C241.967 26.4068 246.181 28.6216 249.481 31.8524C254.247 36.5197 255.735 42.1753 255.768 48.6908L255.772 134.906L255.782 159.422C255.783 163.862 256.166 168.752 255.46 173.138C254.73 177.671 252.661 181.518 249.413 184.748C243.153 190.975 235.815 190.671 227.616 190.652L214.395 190.636C210.706 190.649 206.982 190.758 203.315 190.298C200.059 195.235 195.157 199.587 189.401 201.306C184.549 202.754 179.434 202.43 174.963 200.011C171.233 197.992 167.956 194.689 166.716 190.555C159.306 190.865 151.786 190.645 144.365 190.64C135.62 190.635 126.831 190.807 118.092 190.546C116.577 193.886 114.45 196.735 111.419 198.849C107.205 201.748 102.001 202.827 96.9822 201.842C90.2332 200.583 85.0692 196.064 81.2618 190.579C74.0084 190.686 66.7449 190.643 59.4906 190.65C55.1151 190.654 50.3576 191.047 46.042 190.313C43.1234 189.817 39.9883 188.619 37.5855 186.872C33.1662 183.716 30.225 178.894 29.4417 173.52C28.9892 170.426 29.1176 167.254 29.1236 164.134L29.1329 152.299L29.1282 110.5L29.118 65.0543L29.1146 50.9975C29.1163 48.3187 28.9701 45.5264 29.2669 42.8664C29.6292 39.6161 31.1746 36.4857 33.1326 33.9073C36.7635 29.1251 41.7506 26.4983 47.6393 25.7115ZM78.2173 184.777C74.469 175.228 74.6391 164.585 78.6915 155.161C83.258 144.4 92.7125 135.531 102.919 130.106C94.8733 122.376 91.4741 112.311 91.2275 101.304C91.1173 96.3756 91.734 90.9722 93.6124 86.3801C88.4084 81.5504 84.9335 76.1886 84.6635 68.9093C84.4526 63.2167 86.2714 58.0004 90.1767 53.8174C93.8378 49.8182 98.9691 47.4818 104.39 47.3466C110.077 47.2062 115.425 49.6889 119.464 53.6069C120.967 55.0647 122.357 56.6995 123.61 58.3759C126.922 57.6857 130.128 56.6663 133.473 56.1032C141.159 54.81 152.636 55.382 159.884 58.418C164.524 52.7998 169.553 48.2069 177.14 47.4644C182.491 46.8902 187.843 48.5424 191.94 52.033C196.804 56.1096 199.026 60.9794 199.53 67.2329C199.557 67.5621 199.554 67.8789 199.529 68.2076C199.077 75.4461 196.86 80.6424 191.373 85.4935C191.138 85.701 190.902 85.9073 190.664 86.1118C194.659 95.5277 193.665 107.735 189.93 117.04C187.868 122.176 184.889 126.336 180.867 130.108C192.626 136.237 203.027 146.704 207.045 159.557C209.786 168.325 209.124 176.293 206.222 184.877C212.683 184.738 219.165 184.844 225.629 184.853C229.775 184.859 234.446 185.281 238.479 184.279C241.375 183.543 244.01 182.021 246.096 179.882C248.163 177.731 249.528 174.775 249.925 171.824C250.643 166.499 250.226 160.788 250.21 155.41L250.216 128.684L250.213 75.7298C250.215 66.8515 250.433 57.9149 250.21 49.0455C250.079 43.8377 248.876 39.1865 244.988 35.4927C242.824 33.4365 239.413 31.6772 236.428 31.2804C233.126 30.8419 229.627 30.9797 226.302 30.9738L211.039 30.9687L160.845 30.967L87.8049 30.9576L64.1465 30.9474C60.049 30.947 55.8401 30.7641 51.7537 31.004C51.6143 31.012 51.4752 31.0261 51.3357 31.0371C46.5817 31.1779 42.1954 32.5183 38.8311 36.0493C36.5351 38.4593 35.4435 41.4575 35.0501 44.7146C34.4292 49.8539 34.8732 55.9459 34.8864 61.1724L34.8949 91.3035L34.8932 144.644C34.8987 153.02 34.6053 161.504 34.9038 169.869C35.0548 174.101 36.0682 177.729 39.2649 180.7C41.0647 182.373 43.222 183.703 45.6227 184.297C50.0931 185.402 58.0932 184.847 62.8741 184.841C67.8769 184.834 72.9895 185.04 77.9817 184.793C78.0604 184.789 78.1386 184.782 78.2173 184.777ZM102.885 53.3084C98.5498 54.3078 94.9928 56.258 92.5892 60.1335C90.3889 63.6815 89.8569 68.1728 90.8226 72.2051C91.4418 74.7912 92.7019 77.3339 94.4374 79.3535C95.3849 80.4562 100.01 83.7924 100.156 84.4767C100.519 86.1714 98.7692 89.0372 98.2763 90.6902C95.8089 98.9655 96.5463 108.471 100.011 116.338C101.482 119.679 103.781 123.585 106.595 125.967C107.86 127.036 109.576 128.002 110.533 129.353C111.007 130.022 111.392 130.977 110.996 131.772C110.355 133.06 102.763 136.753 100.994 137.903C87.7586 146.513 78.6685 161.527 82.0579 177.629C83.3826 183.921 86.6865 190.192 92.2247 193.728C95.6031 195.884 99.4343 197.155 103.454 196.256C106.746 195.509 109.624 193.527 111.495 190.719C112.944 188.499 113.457 185.426 112.89 182.854C111.362 175.921 103.391 174.878 103.533 166.511C103.572 164.176 104.328 161.903 105.553 159.926C106.456 158.466 107.732 157.009 109.494 156.659C110.356 156.488 111.436 156.565 112.149 157.132C112.672 157.547 112.9 158.213 112.895 158.863C112.865 163.07 105.937 164.974 111.182 170.619C112.271 171.791 113.503 172.829 114.586 174.007C117.417 177.09 118.457 180.855 119.104 184.876C134.586 184.628 150.14 184.688 165.624 184.829C165.932 182.09 166.285 179.669 167.628 177.227C170.225 172.504 176.349 169.911 174.713 164.489C173.503 162.614 171.562 161.032 172.037 158.577C172.169 157.891 172.507 157.276 173.107 156.893C173.721 156.501 174.504 156.454 175.2 156.62C177.012 157.053 178.279 158.729 179.145 160.274C180.647 162.955 181.636 166.455 180.711 169.467C178.87 175.465 172.21 177.009 171.574 184.073C171.384 186.179 171.823 188.216 172.771 190.097C174.218 192.965 176.739 195.03 179.812 195.961C183.647 197.122 187.585 196.288 191.008 194.356C196.337 191.347 200.216 185.669 201.813 179.823C204.269 170.832 202.96 161.854 198.285 153.786C194.158 146.663 187.704 140.578 180.617 136.406C178.557 135.194 176.224 134.342 174.238 133.035C173.223 132.366 172.685 131.347 173.037 130.133C173.541 128.39 176.688 126.64 177.971 125.27C185.312 117.428 188.868 105.505 187.15 94.8693C186.683 91.9796 185.636 89.2541 184.701 86.4967C184.508 85.9264 184.073 84.7403 184.348 84.179C184.874 83.1069 187.685 81.2212 188.683 80.2461C193.532 75.5112 195.434 67.8117 192.411 61.562C190.704 58.0029 187.641 55.2778 183.907 53.996C180.119 52.6781 175.957 53.1387 172.386 54.8865C170.398 55.8532 168.609 57.1843 167.111 58.8105C165.802 60.2049 164.028 63.6764 162.389 64.3866C161.986 64.561 161.603 64.6252 161.17 64.569C159.925 64.407 158.65 63.8163 157.432 63.488C154.77 62.7702 151.814 61.9621 149.085 61.6326C142.616 60.91 136.071 61.2792 129.724 62.7247C127.194 63.3196 124.617 64.4176 122.04 64.6762C120.274 63.7058 119.222 62.0723 117.981 60.535C113.97 55.5627 109.454 52.7836 102.885 53.3084Z" fill="white"/>
<path d="M47.6393 25.7115C48.4111 25.6813 49.1839 25.6583 49.9561 25.6435C64.1699 25.4011 78.4269 25.635 92.6449 25.6341H177.544L217.974 25.629L230.104 25.6273C232.481 25.6282 235.013 25.4963 237.369 25.8046C241.967 26.4068 246.181 28.6216 249.481 31.8524C254.247 36.5197 255.735 42.1753 255.768 48.6908L255.772 134.906L255.782 159.422C255.783 163.862 256.166 168.752 255.46 173.138C254.73 177.671 252.661 181.518 249.413 184.748C243.153 190.975 235.815 190.671 227.616 190.652L214.395 190.636C210.706 190.649 206.982 190.758 203.315 190.298C200.059 195.235 195.157 199.587 189.401 201.306C184.549 202.754 179.434 202.43 174.963 200.011C171.233 197.992 167.956 194.689 166.716 190.555C159.306 190.865 151.786 190.645 144.365 190.64C135.62 190.635 126.831 190.807 118.092 190.546C116.577 193.886 114.45 196.735 111.419 198.849C107.205 201.748 102.001 202.827 96.9822 201.842C90.2332 200.583 85.0692 196.064 81.2618 190.579C74.0084 190.686 66.7449 190.643 59.4906 190.65C55.1151 190.654 50.3576 191.047 46.042 190.313C43.1234 189.817 39.9883 188.619 37.5855 186.872C33.1662 183.716 30.225 178.894 29.4417 173.52C28.9892 170.426 29.1176 167.254 29.1236 164.134L29.1329 152.299L29.1282 110.5L29.118 65.0543L29.1146 50.9975C29.1163 48.3187 28.9701 45.5264 29.2669 42.8664C29.6292 39.6161 31.1746 36.4857 33.1326 33.9073C36.7635 29.1251 41.7506 26.4983 47.6393 25.7115ZM78.2173 184.777C74.469 175.228 74.6391 164.585 78.6915 155.161C83.258 144.4 92.7125 135.531 102.919 130.106C94.8733 122.376 91.4741 112.311 91.2275 101.304C91.1173 96.3756 91.734 90.9722 93.6124 86.3801C88.4084 81.5504 84.9335 76.1886 84.6635 68.9093C84.4526 63.2167 86.2714 58.0004 90.1767 53.8174C93.8378 49.8182 98.9691 47.4818 104.39 47.3466C110.077 47.2062 115.425 49.6889 119.464 53.6069C120.967 55.0647 122.357 56.6995 123.61 58.3759C126.922 57.6857 130.128 56.6663 133.473 56.1032C141.159 54.81 152.636 55.382 159.884 58.418C164.524 52.7998 169.553 48.2069 177.14 47.4644C182.491 46.8902 187.843 48.5424 191.94 52.033C196.804 56.1096 199.026 60.9794 199.53 67.2329C199.557 67.5621 199.554 67.8789 199.529 68.2076C199.077 75.4461 196.86 80.6424 191.373 85.4935C191.138 85.701 190.902 85.9073 190.664 86.1118C194.659 95.5277 193.665 107.735 189.93 117.04C187.868 122.176 184.889 126.336 180.867 130.108C192.626 136.237 203.027 146.704 207.045 159.557C209.786 168.325 209.124 176.293 206.222 184.877C212.683 184.738 219.165 184.844 225.629 184.853C229.775 184.859 234.446 185.281 238.479 184.279C241.375 183.543 244.01 182.021 246.096 179.882C248.163 177.731 249.528 174.775 249.925 171.824C250.643 166.499 250.226 160.788 250.21 155.41L250.216 128.684L250.213 75.7298C250.215 66.8515 250.433 57.9149 250.21 49.0455C250.079 43.8377 248.876 39.1865 244.988 35.4927C242.824 33.4365 239.413 31.6772 236.428 31.2804C233.126 30.8419 229.627 30.9797 226.302 30.9738L211.039 30.9687L160.845 30.967L87.8049 30.9576L64.1465 30.9474C60.049 30.947 55.8401 30.7641 51.7537 31.004C51.6143 31.012 51.4752 31.0261 51.3357 31.0371C46.5817 31.1779 42.1954 32.5183 38.8311 36.0493C36.5351 38.4593 35.4435 41.4575 35.0501 44.7146C34.4292 49.8539 34.8732 55.9459 34.8864 61.1724L34.8949 91.3035L34.8932 144.644C34.8987 153.02 34.6053 161.504 34.9038 169.869C35.0548 174.101 36.0682 177.729 39.2649 180.7C41.0647 182.373 43.222 183.703 45.6227 184.297C50.0931 185.402 58.0932 184.847 62.8741 184.841C67.8769 184.834 72.9895 185.04 77.9817 184.793C78.0604 184.789 78.1386 184.782 78.2173 184.777ZM102.885 53.3084C98.5498 54.3078 94.9928 56.258 92.5892 60.1335C90.3889 63.6815 89.8569 68.1728 90.8226 72.2051C91.4418 74.7912 92.7019 77.3339 94.4374 79.3535C95.3849 80.4562 100.01 83.7924 100.156 84.4767C100.519 86.1714 98.7692 89.0372 98.2763 90.6902C95.8089 98.9655 96.5463 108.471 100.011 116.338C101.482 119.679 103.781 123.585 106.595 125.967C107.86 127.036 109.576 128.002 110.533 129.353C111.007 130.022 111.392 130.977 110.996 131.772C110.355 133.06 102.763 136.753 100.994 137.903C87.7586 146.513 78.6685 161.527 82.0579 177.629C83.3826 183.921 86.6865 190.192 92.2247 193.728C95.6031 195.884 99.4343 197.155 103.454 196.256C106.746 195.509 109.624 193.527 111.495 190.719C112.944 188.499 113.457 185.426 112.89 182.854C111.362 175.921 103.391 174.878 103.533 166.511C103.572 164.176 104.328 161.903 105.553 159.926C106.456 158.466 107.732 157.009 109.494 156.659C110.356 156.488 111.436 156.565 112.149 157.132C112.672 157.547 112.9 158.213 112.895 158.863C112.865 163.07 105.937 164.974 111.182 170.619C112.271 171.791 113.503 172.829 114.586 174.007C117.417 177.09 118.457 180.855 119.104 184.876C134.586 184.628 150.14 184.688 165.624 184.829C165.932 182.09 166.285 179.669 167.628 177.227C170.225 172.504 176.349 169.911 174.713 164.489C173.503 162.614 171.562 161.032 172.037 158.577C172.169 157.891 172.507 157.276 173.107 156.893C173.721 156.501 174.504 156.454 175.2 156.62C177.012 157.053 178.279 158.729 179.145 160.274C180.647 162.955 181.636 166.455 180.711 169.467C178.87 175.465 172.21 177.009 171.574 184.073C171.384 186.179 171.823 188.216 172.771 190.097C174.218 192.965 176.739 195.03 179.812 195.961C183.647 197.122 187.585 196.288 191.008 194.356C196.337 191.347 200.216 185.669 201.813 179.823C204.269 170.832 202.96 161.854 198.285 153.786C194.158 146.663 187.704 140.578 180.617 136.406C178.557 135.194 176.224 134.342 174.238 133.035C173.223 132.366 172.685 131.347 173.037 130.133C173.541 128.39 176.688 126.64 177.971 125.27C185.312 117.428 188.868 105.505 187.15 94.8693C186.683 91.9796 185.636 89.2541 184.701 86.4967C184.508 85.9264 184.073 84.7403 184.348 84.179C184.874 83.1069 187.685 81.2212 188.683 80.2461C193.532 75.5112 195.434 67.8117 192.411 61.562C190.704 58.0029 187.641 55.2778 183.907 53.996C180.119 52.6781 175.957 53.1387 172.386 54.8865C170.398 55.8532 168.609 57.1843 167.111 58.8105C165.802 60.2049 164.028 63.6764 162.389 64.3866C161.986 64.561 161.603 64.6252 161.17 64.569C159.925 64.407 158.65 63.8163 157.432 63.488C154.77 62.7702 151.814 61.9621 149.085 61.6326C142.616 60.91 136.071 61.2792 129.724 62.7247C127.194 63.3196 124.617 64.4176 122.04 64.6762C120.274 63.7058 119.222 62.0723 117.981 60.535C113.97 55.5627 109.454 52.7836 102.885 53.3084Z" stroke="white" stroke-width="2" mask="url(#path-2-outside-2_29_16)"/>
<path d="M140.808 103.508C141.919 103.439 143.045 103.468 144.14 103.683C146.071 104.062 148.205 104.959 149.308 106.68C149.989 107.755 150.191 109.066 149.865 110.297C149.222 112.755 147.069 113.973 145.058 115.196C145.024 117.085 144.786 119.221 145.408 121.03C145.763 122.064 146.475 123.03 147.496 123.478C150.921 124.981 153.784 121.552 156.735 120.594C157.527 120.337 158.104 120.305 158.863 120.708C159.13 121.025 159.316 121.29 159.416 121.693C159.717 122.909 159.461 124.249 158.784 125.293C157.384 127.448 154.265 128.842 151.794 129.328C148.774 129.924 146.031 129.188 143.512 127.518C143.168 127.268 142.811 127.036 142.458 126.799C142.013 126.856 141.896 126.914 141.53 127.149C139.59 128.397 138.144 129.488 135.732 129.588C132.548 129.722 129.275 128.598 126.944 126.389C125.958 125.455 125.025 124.089 125.051 122.672C125.065 121.96 125.41 121.364 125.949 120.921C128.128 119.127 129.262 121.326 130.887 122.457C131.956 123.202 133.501 123.759 134.805 123.845C135.916 123.918 136.983 123.609 137.784 122.81C139.747 120.854 139.341 117.663 139.299 115.13C138.65 114.873 138.016 114.605 137.419 114.239C136.01 113.375 134.892 112.006 134.529 110.372C134.215 108.989 134.508 107.537 135.333 106.384C136.642 104.542 138.701 103.911 140.808 103.508Z" fill="white"/>
<path d="M123.542 90.3242C126.262 89.5766 129.071 91.1833 129.805 93.9071C130.54 96.6305 128.918 99.4317 126.191 100.152C123.483 100.867 120.706 99.2604 119.978 96.5561C119.248 93.8518 120.841 91.0672 123.542 90.3242Z" fill="white"/>
<path d="M157.629 90.4355C160.26 89.6521 163.032 91.1282 163.851 93.7492C164.669 96.3697 163.23 99.1615 160.62 100.015C158.901 100.577 157.013 100.17 155.677 98.9506C154.342 97.731 153.766 95.887 154.17 94.1238C154.574 92.3611 155.895 90.9518 157.629 90.4355Z" fill="white"/>
<path d="M243.205 206.906C248.826 205.881 254.215 209.6 255.252 215.218C256.289 220.837 252.582 226.235 246.965 227.284C241.332 228.335 235.915 224.614 234.875 218.979C233.835 213.343 237.567 207.934 243.205 206.906ZM245.893 221.731C247.587 221.418 248.975 220.205 249.512 218.569C250.049 216.931 249.649 215.132 248.47 213.876C247.4 212.738 245.836 212.204 244.294 212.45C242.62 212.718 241.218 213.866 240.625 215.455C240.033 217.044 240.34 218.828 241.43 220.128C242.521 221.427 244.225 222.039 245.893 221.731Z" fill="white"/>
<path d="M213.91 206.934C219.515 205.864 224.927 209.534 226.008 215.136C227.088 220.739 223.428 226.158 217.828 227.249C212.213 228.342 206.776 224.671 205.693 219.053C204.61 213.437 208.291 208.007 213.91 206.934ZM216.964 221.606C218.836 221.147 220.235 219.586 220.489 217.676C220.743 215.765 219.8 213.894 218.113 212.961C217.16 212.433 216.052 212.255 214.981 212.456C213.307 212.771 211.936 213.971 211.401 215.588C210.866 217.206 211.252 218.987 212.408 220.237C213.565 221.489 215.31 222.013 216.964 221.606Z" fill="white"/>
</svg>
